<?xml version="1.0" encoding="utf-8"?>
<!-- Generator: Adobe Illustrator 24.0.1, SVG Export Plug-In . SVG Version: 6.00 Build 0)  -->
<svg version="1.1" id="Layer_1" xmlns="http://www.w3.org/2000/svg" xmlns:xlink="http://www.w3.org/1999/xlink" x="0px" y="0px"
	 viewBox="0 0 1000 1000" style="enable-background:new 0 0 1000 1000;" xml:space="preserve">
<g>
	<path d="M336.46,570.48c55.54-6.6,55.54-6.6,55.54-61.55c0-64.17,0-64.17-62.96-64.17c-34.49,0-68.97,0-105.41,0
		c0-32.3-1.62-62.51,0.58-92.44c1.43-19.54,20.13-30.71,44.77-30.77c74.49-0.18,148.99-0.07,223.48-0.07
		c84.82,0,169.64-0.06,254.45,0.03c36.9,0.04,51.23,14.21,51.41,50.62c0.13,26.57,0.03,53.15,0.03,81.68
		c-77.12,2.48-133.84,35.16-157.13,110.27c-19.77,63.75,1.08,117.94,51.73,164.33c-107.06,0-211.55,0-318.72,0
		c0-16.98,0.03-33.8-0.01-50.62c-0.06-33.17-4.31-38.28-37.76-43.98C336.46,613.09,336.46,592.09,336.46,570.48z"/>
	<path d="M363,474.62c0,20.89,0,41.25,0,63.27c-78.41,0-156.06,0-235.28,0c0-20.63,0-41.03,0-63.27
		C205.37,474.62,283.59,474.62,363,474.62z"/>
	<path d="M305.69,570.94c0,21.11,0,41.5,0,63.42c-78.22,0-155.88,0-235.18,0c0-20.51,0-40.81,0-63.42
		C148.28,570.94,226.35,570.94,305.69,570.94z"/>
	<path d="M109.11,729.16c0-22.25,0-42.06,0-63.52c78.36,0,156.01,0,235.46,0c0,20.37,0,41.24,0,63.52
		C266.4,729.16,188.79,729.16,109.11,729.16z"/>
	<path d="M414.91,292.37c-3.01,0-11.59,0-20.1,0c-13.64-47.58,10.6-63.05,44.07-61.23c45.47,2.47,91.16,0.6,136.76,0.62
		c47.67,0.01,56.43,9.58,52.99,59.79c-9.62,0-19.43,0-30.78,0c-1.06-7.68-2.23-16.15-3.75-27.19c-53.02,0-105.82-0.83-158.53,1.09
		C429.23,265.68,423.43,280.79,414.91,292.37z"/>
	<path d="M359.46,292.04c-29.49,0-56.96,0-84.51,0c2.04-26.05,3.57-26.66,55.45-25.75C346.76,266.59,362.2,267.51,359.46,292.04z"/>
	<path d="M744.72,291.85c-28.37,0-56.29,0-84.35,0c2.58-26.17,5.25-27.15,57.99-25.56C734.63,266.78,747.93,269.64,744.72,291.85z"
		/>
	<path d="M785.91,484.11c-68.37-0.23-124.02,55.66-123.53,124.03c0.49,67.64,55.29,122.18,122.89,122.29
		c68.57,0.11,123.92-55.4,123.51-123.87C908.38,538.99,853.54,484.34,785.91,484.11z M810.44,625.48c0,25.74,0,49.02,0,74.2
		c-16.55,0-30.66,0-47.63,0c0-18.7-0.57-37.02,0.19-55.29c0.55-13.34-4.1-18.78-17.79-18.12c-18.19,0.88-36.45,0.22-55.88,0.22
		c0-16.33,0-30,0-46.01c24.06,0,47.31,0,72.94,0c0-25.68,0-49.1,0-74.91c17.16,0,30.23,0,46.27,0c0,24.26,0,48.21,0,74.26
		c26.16,0,49.44,0,74.21,0c0,15.79,0,29.41,0,45.65C859.28,625.48,836.08,625.48,810.44,625.48z"/>
</g>
</svg>
