<?xml version="1.0" encoding="utf-8"?>
<!-- Generator: Adobe Illustrator 24.0.1, SVG Export Plug-In . SVG Version: 6.00 Build 0)  -->
<svg version="1.1" id="Layer_1" xmlns="http://www.w3.org/2000/svg" xmlns:xlink="http://www.w3.org/1999/xlink" x="0px" y="0px"
	 viewBox="0 0 1000 1000" style="enable-background:new 0 0 1000 1000;" xml:space="preserve">
<g>
	<path d="M502.42,294.35c0-6.61,0-11.16,0-16.84c-15.39,0-29.95,0-44.51,0c-40.87,0-81.74,0-122.61,0c-3.44,0-6.89,0.1-10.32-0.09
		c-9.45-0.5-16.14-5.01-15.76-14.94c0.36-9.33,7.08-13.04,16.03-13.02c27.49,0.05,54.99-0.03,82.48,0.06
		c35.65,0.11,71.3,0.69,106.95,0.3c11.05-0.12,15.94,4.85,17.1,14.77c0.6,5.11,0.24,10.34,0.25,15.52
		c0.02,22.8,12.54,34.38,35.44,30.63c9.35-1.53,18.57-6.19,26.9-11.06c8.22-4.81,15.87-8.65,22.66,0.32
		c6.58,8.68,2.24,15.65-5.34,22.04c-24.97,21.04-57.79,23.32-86.41,6.46c-6.24-3.68-14.25-6.02-21.48-6.09
		c-52.01-0.51-104.03-0.28-156.05-0.3c-3.87,0-8.7,1.25-11.39-0.59c-4.77-3.25-11.23-8.31-11.4-12.82
		c-0.17-4.52,5.88-10.09,10.42-13.63c2.48-1.94,7.48-0.78,11.34-0.78c44.73,0,89.47,0.04,134.2,0.07
		C487.77,294.35,494.61,294.35,502.42,294.35z"/>
	<path d="M718.43,518.08c-14.84,5.77-28.93,10.75-42.6,16.68c-16.53,7.17-22.88,20.44-22.67,38.35c0.5,41.79,0.16,83.6,0.16,127.46
		c-48.34-14.88-92.68-9.76-129.18,26.45c-36.6,36.32-41.88,81.06-28.58,130.45c-19.41,0-36.95,0-54.49,0
		c-68.84-0.02-137.73-1.53-206.51,0.56c-35.91,1.09-60.75-13.88-81.6-40.3c-92.01-116.61-69.2-288.44,50.2-377.03
		c32.84-24.37,66.2-48.02,98.83-72.67c20.78-15.69,43.73-23.38,69.54-23.35c36.14,0.04,72.37-1.42,108.39,0.66
		c16.55,0.96,34.98,5.28,48.62,14.16c47.88,31.17,94.65,64.18,140.61,98.16C690.21,473.25,705.55,494.99,718.43,518.08z
		 M174.27,635.3c0,4.19,0,6.78,0,9.36c-0.02,8.64,4.03,14.24,12.76,14.73c9.38,0.53,14.22-4.85,14.72-14.11
		c2.35-43.06,20.12-80.07,46.71-112.64c35.33-43.27,76.3-78.48,135.52-83.27c8.24-0.67,12.16-6.03,11.86-14.08
		c-0.33-8.93-5.81-13.96-14.21-13.03c-13.57,1.49-27.55,2.8-40.37,7.15c-53.78,18.22-93.91,54.44-125.89,100.3
		C192.93,561.9,177.64,597.15,174.27,635.3z"/>
	<path d="M607.42,721.11c51.82,0.83,91.8,41.34,91.11,92.33c-0.66,48.51-43.17,89.83-92.19,89.62
		c-49.44-0.21-90.62-43.74-89.53-94.63C517.84,760.16,559.16,720.34,607.42,721.11z"/>
	<path d="M923.23,682.29c0,17.6,1.1,34.38-0.66,50.86c-0.53,5-8.22,10.7-13.89,13.45c-32.82,15.87-68.11,21.78-104.05,19.93
		c-28.1-1.45-56.08-6.32-83.93-10.8c-5.39-0.87-10.39-6.48-14.75-10.76c-4.56-4.48-7.84-10.24-12.18-14.99
		c-13.76-15.05-16.06-24.57-10.51-46.99C762.71,713.4,842.27,713.08,923.23,682.29z"/>
	<path d="M681.92,596.35c40.9,14.97,80.99,18.99,121.61,18.7c40.04-0.28,79.67-4.03,119.62-18.58c0,16.56,1.36,31.66-0.71,46.27
		c-0.76,5.39-8.82,12-14.87,13.99c-21.12,6.93-42.5,14.16-64.35,17.48c-45.63,6.92-90.9,3.29-134.84-11.96
		c-5.26-1.82-10.24-4.45-15.34-6.72c-8.34-3.71-12.22-9.35-11.38-19.26C682.72,623.62,681.92,610.81,681.92,596.35z"/>
	<path d="M723.33,846.55c1.16-19.62,2.21-37.48,3.35-56.82c65.05,8.71,130.49,8.89,196.6-12.63c0,16.2,0.66,31.07-0.44,45.81
		c-0.3,3.97-5.25,9.31-9.3,10.96c-15.82,6.41-31.77,13.17-48.33,16.94c-44.62,10.16-89.44,8.8-133.99-1.51
		C728.37,848.64,725.66,847.37,723.33,846.55z"/>
	<path d="M920.71,563.35c-34.5,30.85-198.14,31.77-236.14,1.19C704.78,534.98,879.81,530.2,920.71,563.35z"/>
	<path d="M404.12,218.96c-16.34,0.01-32.69-0.32-49.01,0.14c-9.81,0.28-16.16-3.23-20.29-12.36
		c-13.06-28.86-30.36-54.84-52.58-77.59c-9.87-10.1-6.6-21.46,6.93-25.76c30.07-9.56,58.93-9.35,85.91,10.17
		c18.3,13.23,35.75,13.18,53.55,0.05c26.84-19.81,55.7-20.18,85.76-10.38c13.71,4.47,16.77,16.67,6.27,27.01
		c-20.81,20.51-33.01,46.07-43.42,72.56c-4.67,11.9-11.47,16.89-24.11,16.33C436.83,218.4,420.46,218.95,404.12,218.96z"/>
</g>
</svg>
