<?xml version="1.0" encoding="utf-8"?>
<!-- Generator: Adobe Illustrator 24.0.1, SVG Export Plug-In . SVG Version: 6.00 Build 0)  -->
<svg version="1.1" id="Layer_1" xmlns="http://www.w3.org/2000/svg" xmlns:xlink="http://www.w3.org/1999/xlink" x="0px" y="0px"
	 viewBox="0 0 1000 1000" style="enable-background:new 0 0 1000 1000;" xml:space="preserve">
<g>
	<path d="M821.69,566.95c-17.65-6.52-34.76-12.84-52.83-19.51c43.11-35.82,85.63-71.16,129.18-107.34
		c9.5,55.57,18.82,110.1,28.3,165.56c-18.83-6.93-36.71-13.51-54.72-20.14c-4.84,9.11-9.34,18.19-14.38,26.96
		C820.66,676.18,769.09,723.84,703.16,756c-33.3,16.24-68.41,26.84-105.07,31.89c-58.81,8.11-116.19,1.99-171.89-18.76
		c-4.94-1.84-10.22-3.61-14.29-6.77c-10.73-8.31-13.07-22.16-6.51-33.59c6.36-11.08,19.36-15.72,32-11.53
		c12.63,4.18,25.11,8.96,37.98,12.21c39.51,10,79.48,12.1,119.83,5.58c68.43-11.05,126.53-41.74,174.33-91.83
		C790.84,620.88,807.96,595.57,821.69,566.95z"/>
	<path d="M224.11,493.49c-30.52-16.22-60.31-16.11-90.64-0.18c-0.12-2.36-0.3-4.11-0.3-5.86c-0.01-54.99-0.01-109.99-0.01-164.98
		c0-25.82-0.01-51.65,0.02-77.47c0.01-9.98,2.19-12.07,11.99-12.06c22.99,0.02,45.98-0.02,68.97-0.05
		c6.99-0.01,9.98,2.87,9.98,10.04c0.01,72.49-0.01,144.99-0.01,217.48C224.11,471.06,224.11,481.71,224.11,493.49z"/>
	<path d="M520.84,692.94c0-76.88,0-153.26,0-230.13c30,15.81,59.78,15.88,90.09-0.02c0.11,2.34,0.26,4.07,0.26,5.8
		c0.01,70.79-0.05,141.58,0.14,212.37c0.01,5.06-1.59,6.72-6.36,7.75c-25.74,5.56-51.69,7.29-77.91,5.25
		C525.08,693.83,523.13,693.33,520.84,692.94z"/>
	<path d="M326.82,400.8c0-2.86,0-4.68,0-6.49c0-50.16-0.01-100.32-0.01-150.48c0-8.19,2.62-10.91,10.6-10.91
		c23.33-0.02,46.66-0.02,69.99-0.01c7.38,0,10.38,2.82,10.38,10.25c0.05,51.16,0.02,102.32,0,153.48c0,0.98-0.16,1.96-0.32,3.83
		C387.37,384.96,357.43,384.45,326.82,400.8z"/>
	<path d="M714.41,340.59c30.08,15.65,59.89,15.93,90.31-0.19c0.13,2.35,0.31,4.07,0.31,5.79c0,36.66,0.04,73.32-0.15,109.99
		c-0.01,2.26-1.3,5.22-3,6.65c-28.19,23.67-56.54,47.14-84.86,70.65c-0.63,0.52-1.34,0.94-2.61,1.83
		C714.41,470.3,714.41,405.82,714.41,340.59z"/>
	<path d="M326.84,556.59c30.59,16.16,60.36,16.05,90.98-0.06c0,2.92,0.02,5.16,0,7.39c-0.13,15.48-0.38,30.96-0.38,46.44
		c0,18.79,0.12,37.59,0.42,56.38c0.07,4.17-0.98,5.76-5.41,6.88c-24.82,6.27-41.98,21.48-50.57,45.77
		c-1.35,3.81-3.09,5.16-7.09,4.92c-5.97-0.36-11.98-0.07-17.98-0.09c-7.21-0.03-9.92-2.69-9.92-9.9
		c-0.03-48.62-0.03-97.25-0.04-145.87C326.84,564.8,326.84,561.15,326.84,556.59z"/>
	<path d="M371.96,531.5c-29.22-0.22-52.71-23.75-52.68-52.78c0.03-29.89,23.95-53.08,54.57-52.91
		c28.31,0.16,51.62,24.48,51.33,53.57C424.89,508.44,401.13,531.72,371.96,531.5z"/>
	<path d="M566.03,437.45c-29.24,0.11-52.96-23.23-53.14-52.29c-0.18-29.76,23.47-53.3,53.58-53.35
		c28.5-0.05,52.29,23.77,52.49,52.56C619.18,413.54,595.44,437.34,566.03,437.45z"/>
	<path d="M231.44,571.26c0.48,27.79-22.69,51.96-49.8,53.04c-30.09,1.19-54.95-21.73-55.74-50.57
		c-0.85-30.94,21.91-54.76,52.01-55.14C207.77,518.19,230.92,540.97,231.44,571.26z"/>
	<path d="M759.81,209.66c27.16-0.66,53.49,22.98,52.56,54.67c-0.83,28.07-24.39,51.08-53.51,50.91
		c-29.15-0.17-52.22-23.85-52.24-53.16C706.6,232.18,731.78,208.91,759.81,209.66z"/>
	<path d="M133.66,649.5c30.16,15.82,59.81,15.77,90.03,0c0.17,1.88,0.4,3.25,0.4,4.62c0.03,20,0.04,40,0.02,59.99
		c-0.01,7.56-2.62,10.1-10.27,10.11c-23.66,0.01-47.33,0.01-70.99-0.01c-6.74-0.01-9.61-2.55-9.65-9.22c-0.13-21-0.06-42-0.05-62.99
		C133.17,651.38,133.4,650.77,133.66,649.5z"/>
	<path d="M610.85,306.38c-30.01-15.47-59.66-15.69-89.81,0.05c-0.16-1.74-0.39-3.11-0.39-4.49c-0.03-19.66-0.04-39.31-0.01-58.97
		c0.01-7.55,2.58-10.03,10.31-10.04c23.32-0.02,46.64-0.02,69.96,0c7.62,0.01,10.28,2.63,10.29,10.1
		c0.02,19.49,0.01,38.98-0.01,58.47C611.18,302.93,610.99,304.36,610.85,306.38z"/>
	<path d="M756.59,589.91c-12.21,17.17-26.07,31.49-42.33,44.92c0-20.7,0-40.35,0-60.83C728.4,579.32,742.13,584.48,756.59,589.91z"
		/>
</g>
</svg>
