<?xml version="1.0" encoding="utf-8"?>
<!-- Generator: Adobe Illustrator 24.0.1, SVG Export Plug-In . SVG Version: 6.00 Build 0)  -->
<svg version="1.1" id="Layer_1" xmlns="http://www.w3.org/2000/svg" xmlns:xlink="http://www.w3.org/1999/xlink" x="0px" y="0px"
	 viewBox="0 0 1000 1000" style="enable-background:new 0 0 1000 1000;" xml:space="preserve">
<g>
	<path d="M638.84,466.44c5.18,2.91,9.46,4.35,12.44,7.17c10.18,9.62,20.04,19.6,29.76,29.68c7.03,7.29,7.19,16.31,0.91,22.38
		c-6.03,5.83-14.74,5.67-21.69-1.03c-10.32-9.94-20.94-19.69-30.07-30.65c-3.28-3.95-4.52-11.7-3.16-16.76
		C628.18,473,634.48,470.17,638.84,466.44z"/>
	<path d="M318.21,482.58c-3.23,5.32-4.99,9.71-8.01,12.92c-9.17,9.73-18.72,19.11-28.32,28.42c-7.52,7.29-16.02,7.79-22.31,1.75
		c-6.54-6.28-6.06-15.24,1.5-22.98c9.78-10.01,19.66-19.93,29.64-29.74c4.89-4.8,11.18-6.8,16.96-2.86
		C311.84,472.91,314.47,477.98,318.21,482.58z"/>
	<path d="M209.72,299.14c7.17,0,14.35-0.27,21.5,0.07c8.98,0.42,14.95,6.53,14.96,14.69c0.01,7.69-5.65,14.51-13.97,14.81
		c-15.56,0.55-31.18,0.57-46.74,0c-8.69-0.32-14.5-7.67-13.99-15.69c0.49-7.79,6.27-13.18,14.87-13.86
		c0.62-0.05,1.25-0.07,1.87-0.07c7.17,0,14.34,0,21.51,0C209.72,299.09,209.72,299.11,209.72,299.14z"/>
	<path d="M732.85,328.97c-7.17,0-14.35,0.26-21.5-0.07c-9.54-0.43-15.82-6.63-15.81-15.03c0.02-8.48,6.21-14.53,15.89-14.71
		c14.33-0.26,28.68-0.26,43.01,0.01c9.65,0.18,15.85,6.3,15.82,14.79c-0.03,8.37-6.33,14.52-15.9,14.94
		C747.2,329.22,740.02,328.97,732.85,328.97z"/>
	<path d="M689.23,111.34c-2.86,4.95-4.26,8.91-6.9,11.68c-10.08,10.57-20.43,20.91-30.95,31.04c-7.05,6.79-15.5,6.88-21.54,0.84
		c-5.89-5.89-5.83-14.84,0.73-21.67c10.34-10.76,20.9-21.31,31.54-31.77c4.93-4.85,11.34-6.4,16.99-2.43
		C683.23,101.94,685.82,107.05,689.23,111.34z"/>
	<path d="M268.56,96.06c5.21,2.93,9.49,4.39,12.5,7.2c10.24,9.57,20.15,19.49,29.94,29.51c7.18,7.35,7.38,16.22,0.99,22.36
		c-6.05,5.82-14.68,5.63-21.68-1.08c-10.56-10.13-21.41-20.08-30.86-31.2c-3.12-3.68-4.19-11.33-2.69-16.05
		C258.12,102.52,264.24,99.75,268.56,96.06z"/>
	<path d="M590.01,665c-79.94,0-158.59,0-238.24,0c0-21.95-0.13-43.35,0.19-64.75c0.03-2.29,2.39-4.88,4.24-6.76
		c8.94-9.11,17.83-18.31,27.31-26.85c2.85-2.57,7.53-4.38,11.38-4.4c50.77-0.29,101.55-0.29,152.33,0.01
		c3.82,0.02,7.62,2.88,11.42,4.44c0.26,0.11,0.43,0.44,0.65,0.66c10.08,10.17,24.04,18.71,29.16,30.95
		c5.12,12.23,1.43,28.15,1.55,42.45C590.06,648.51,590.01,656.26,590.01,665z"/>
	<path d="M336.12,800.1c-36.47,0-72.93-0.16-109.39,0.14c-7.27,0.06-9.92-2.05-9.71-9.54c0.47-16.82-0.18-33.66,0.38-50.47
		c0.14-4.14,2.23-9.03,5.03-12.13c8.13-9.01,16.75-17.65,25.87-25.66c3.35-2.94,8.61-5.18,13.01-5.22
		c49.86-0.36,99.73-0.38,149.6,0.03c4.63,0.04,10.19,2.61,13.67,5.8c10.32,9.44,23.54,18.22,28.6,30.22
		c5.05,11.97,1.63,27.52,1.86,41.5c0.09,5.3-0.38,10.63,0.11,15.88c0.69,7.45-2.29,9.65-9.62,9.59
		C409.05,799.93,372.59,800.1,336.12,800.1z"/>
	<path d="M724.77,799.87c-80.15,0-158.56,0-238.3,0c0-17.73,0.56-35.08-0.21-52.37c-0.46-10.4,3.51-17.23,9.94-25.33
		c16.63-20.93,36.5-27.53,63.03-25.99c40.36,2.33,80.96,0.43,121.45,0.86c4.61,0.05,10.16,2.5,13.6,5.65
		c10.52,9.66,23.99,18.62,29.16,30.87c5.03,11.92,1.26,27.57,1.32,41.58C724.8,783.39,724.77,791.64,724.77,799.87z"/>
	<path d="M320.46,934.7c-79.88,0-158.3,0-238.27,0c0-11.62,1.27-23.18-0.26-34.36c-3.25-23.69,4.46-41.21,23.06-56.51
		c10.03-8.25,18.69-12.84,31.86-12.61c46.09,0.8,92.2,0.46,138.3,0.15c6.84-0.05,11.65,1.88,16.24,6.87
		c7.8,8.47,16.37,16.22,24.38,24.5c2.02,2.09,4.44,5.01,4.49,7.59C320.61,891.45,320.46,912.58,320.46,934.7z"/>
	<path d="M470.35,934.85c-36.15,0-72.31-0.19-108.46,0.15c-7.75,0.07-10.37-2.26-10.13-10.09c0.51-16.5-0.22-33.04,0.41-49.53
		c0.17-4.41,2.37-9.67,5.4-12.89c9.79-10.42,18.84-23.74,31.15-28.97c11.94-5.07,27.54-1.71,41.53-1.74
		c37.71-0.1,75.42,0.11,113.13-0.16c7.02-0.05,12.4,1.5,17.28,6.91c9.16,10.16,22.65,18.19,27.52,29.93
		c4.88,11.75,1.54,26.95,1.59,40.64c0.09,25.74,0.03,25.74-25.92,25.74C532.69,934.85,501.52,934.85,470.35,934.85z"/>
	<path d="M621.27,934.39c0-21.79-0.16-42.91,0.2-64.02c0.04-2.58,2.45-5.53,4.49-7.58c10.31-10.37,19.26-24.31,31.8-29.64
		c12.18-5.18,28.16-1.56,42.46-1.58c37.69-0.07,75.39,0.19,113.08-0.2c7.53-0.08,12.83,2.07,17.83,7.57
		c7.53,8.29,15.93,15.78,23.71,23.85c2.02,2.09,4.41,5.02,4.46,7.6c0.36,21.11,0.2,42.24,0.2,64.01
		C780.03,934.39,701.39,934.39,621.27,934.39z"/>
	<path d="M314.18,314.68c-0.72-84.53,69.59-155.98,154.44-156.95c86.55-0.99,158.39,69.24,158.87,155.32
		c0.48,86.21-69.33,157.16-155.35,157.89C385.81,471.68,314.91,401.54,314.18,314.68z M470.69,186.6
		c-70.68-0.06-127.49,56.79-127.62,127.69c-0.12,70.3,56.68,127.69,126.54,127.84c71.71,0.16,128.98-56.32,129.02-127.26
		C598.68,243.44,542.06,186.66,470.69,186.6z"/>
	<path d="M568.06,314.66c-0.13,53.76-44.13,97.18-98.21,96.92c-52.73-0.26-96.36-44.26-96.22-97.03
		c0.14-53.95,43.81-97.46,97.77-97.4C524.6,217.2,568.2,261.19,568.06,314.66z M486.52,254.4c-2.02-8.14-5.84-14.08-14.21-14.77
		c-8.75-0.72-13.67,4.16-16.56,12.17c-0.72,1.99-3.92,3.41-6.27,4.44c-16.3,7.12-25.54,22.64-23.42,39.66
		c2.09,16.78,15.17,29.87,32.69,32.3c4.91,0.68,9.94,0.57,14.91,0.61c5.49,0.05,11.7-0.08,11.77,7.23
		c0.08,7.87-6.43,7.82-12.24,7.82c-10.59-0.01-21.2-0.19-31.78,0.13c-9.15,0.28-15.13,6.07-15.48,14.19
		c-0.37,8.43,5.79,15.02,15.11,15.73c4.62,0.35,9.28,0.06,14.11,0.06c2.12,8.45,6.57,15.07,15.1,14.48
		c4.76-0.33,10.76-3.97,13.39-7.97c2.92-4.43,5.43-7.02,10.62-8.64c17.24-5.38,27.67-23.03,25.14-41.07
		c-2.48-17.69-17.8-31.28-36.07-31.87c-4.67-0.15-9.35,0.04-14.02,0.03c-5.62-0.02-12.67,0.71-12.89-7.04
		c-0.23-7.88,6.71-7.42,12.43-7.4c10.28,0.03,20.57,0.18,30.85-0.06c9.58-0.23,15.89-6.22,16.08-14.67
		c0.19-8.84-6.29-14.98-16.36-15.34C495.39,254.28,491.35,254.4,486.52,254.4z"/>
</g>
</svg>
