<?xml version="1.0" encoding="utf-8"?>
<!-- Generator: Adobe Illustrator 24.0.1, SVG Export Plug-In . SVG Version: 6.00 Build 0)  -->
<svg version="1.1" id="Layer_1" xmlns="http://www.w3.org/2000/svg" xmlns:xlink="http://www.w3.org/1999/xlink" x="0px" y="0px"
	 viewBox="0 0 1000 1000" style="enable-background:new 0 0 1000 1000;" xml:space="preserve">
<path d="M46.24,499.12c3.7-4.45,6.82-9.61,11.19-13.26c131.02-109.36,262.15-218.6,393.31-327.8c31.47-26.2,65.41-26.11,96.91,0.14
	c40.98,34.16,81.87,68.44,122.81,102.65c2.22,1.86,4.54,3.6,8.06,6.39c0.22-4.08,0.49-6.83,0.49-9.59
	c0.03-31.25-0.02-62.5,0.04-93.75c0.04-17.89,5.87-23.63,23.95-23.65c32.13-0.04,64.27-0.06,96.4,0.01
	c17.21,0.04,23.38,6.28,23.39,23.55c0.03,71.64,0.11,143.28-0.15,214.92c-0.02,6.62,2.06,10.73,7.06,14.84
	c36.89,30.32,73.54,60.92,110.28,91.43c14.96,12.42,15.8,20.91,3.47,35.63c-9.09,10.85-18.11,21.75-27.27,32.53
	c-10.17,11.97-19.86,12.81-31.96,2.73c-124.53-103.8-249.04-207.63-373.56-311.45c-3.61-3.01-7.24-5.99-11.55-9.55
	C485,246.62,471,258.23,457.03,269.88c-114.1,95.14-228.19,190.28-342.3,285.41c-13.01,10.85-22.47,10.08-33.24-2.83
	c-11.83-14.17-23.51-28.48-35.25-42.73C46.24,506.19,46.24,502.65,46.24,499.12z"/>
<path d="M499.25,284.37c50.35,41.49,99.94,82.33,149.51,123.2c55.72,45.93,111.36,91.95,167.22,137.7c5.12,4.2,6.96,8.47,6.95,14.96
	c-0.19,86.07-0.11,172.15-0.14,258.22c-0.01,26.4-14.63,41.16-40.98,41.19c-67.21,0.07-134.42,0.03-201.63,0.01
	c-2.59,0-5.18-0.24-8.74-0.41c0-71.6,0-142.77,0-214.61c-48.27,0-95.56,0-144.12,0c0,71.23,0,142.62,0,214.61
	c-4.11,0.18-6.98,0.42-9.85,0.42c-66.91,0.02-133.83,0.06-200.74,0c-26.86-0.02-41.28-14.67-41.28-41.79
	c-0.02-85.78,0.06-171.56-0.15-257.34c-0.02-6.85,2.08-11.24,7.42-15.62c102.69-84.39,205.2-168.99,307.76-253.55
	C493.18,289.11,495.96,286.98,499.25,284.37z"/>
</svg>
