<?xml version="1.0" encoding="utf-8"?>
<!-- Generator: Adobe Illustrator 24.0.1, SVG Export Plug-In . SVG Version: 6.00 Build 0)  -->
<svg version="1.1" id="Layer_1" xmlns="http://www.w3.org/2000/svg" xmlns:xlink="http://www.w3.org/1999/xlink" x="0px" y="0px"
	 viewBox="0 0 1000 1000" style="enable-background:new 0 0 1000 1000;" xml:space="preserve">
<g>
	<path d="M479.78,367.45c-1.63,38.28-17.25,67.77-48.2,88.75c-17.38,11.78-36.84,17.32-57.79,17.42
		c-21.78,0.1-43.57,0.02-66.18,0.02c0,22.14,0,43.84,0,66.08c-9.18,0-17.53,0-26.7,0c0-48.29,0-96.56,0-145.76
		c-21.69,0-42.6,0.51-63.47-0.2c-11.2-0.38-22.7-1.54-33.41-4.62c-41.81-12.03-71.63-49.2-75.28-92.49
		c-0.23-2.68-0.03-5.4-0.03-8.93c20.24,0,40.05-0.3,59.85,0.1c14.03,0.29,28.33,0.05,42,2.67c28.58,5.49,45.69,18.54,69.56,49.76
		c0-35.41,0-69.98,0-105.65c-5.52,0-11.22,0.11-16.91-0.02c-22.33-0.5-44.9,0.81-66.95-2c-47.13-6-85.52-49.91-87.67-97.56
		c-0.09-1.89-0.01-3.79-0.01-6.66c6.92,0,13.47-0.06,20.01,0.01c24.28,0.27,48.85-1.66,72.79,1.35
		c53.1,6.68,89.21,47.33,92.6,100.79c0.07,1.06,0.25,2.12,0.44,3.68c4.14,0.25,8.13,0.5,12.93,0.79c0,8.47,0,16.57,0,25.43
		c6.93-8.15,12.58-15.95,19.38-22.58c19.62-19.13,43.43-29.17,70.79-29.64c27.01-0.47,54.03-0.1,81.84-0.1
		c0.38,18-3.68,34.44-12.13,49.49c-20.47,36.47-51.79,55.7-93.71,56.61c-21.75,0.47-43.52,0.08-65.76,0.08c0,35.3,0,69.95,0,106.03
		c3.4-4.63,5.94-8.38,8.76-11.91c20.92-26.15,48.15-40.11,81.57-40.84C424.85,366.99,451.62,367.45,479.78,367.45z"/>
	<path d="M466.35,739.07c0.08,95.1-77.26,172.73-172.17,172.8c-94.95,0.07-172.42-77.39-172.48-172.47
		c-0.07-95.13,77.22-172.71,172.16-172.78C388.81,566.54,466.28,643.98,466.35,739.07z M347.03,805.64
		c0-14.12,0.25-27.34-0.06-40.55c-0.5-21.76-17.48-38.57-39.26-39.08c-8.83-0.2-17.68,0.16-26.51-0.14
		c-8.33-0.28-13.18-5.28-13.62-13.61c-0.21-4.05-0.04-8.11-0.04-12.86c12.12,0,23.38-0.01,34.65,0c12.17,0.02,14.48,1.59,19.1,12.8
		c8.49,0,16.95,0,25.4,0c-0.41-21.55-12.79-34.22-39.71-40.42c0-8.21,0-16.64,0-25.1c-9.04,0-17.22,0-26.3,0c0,8.77,0,17.18,0,26.46
		c-13.7,0-26.51,0-39.67,0c0,13.89-0.2,26.87,0.04,39.85c0.42,22.19,17.44,39.05,39.71,39.5c8.56,0.17,17.12-0.04,25.68,0.08
		c7.68,0.1,12.67,4.03,13.81,11.61c0.71,4.74,0.13,9.68,0.13,14.9c-11.8,0-22.56-0.39-33.28,0.11c-10.27,0.48-18.05-2.02-20.1-13.04
		c-8.91,0-17.14,0-27.79,0c3.36,8.31,5.32,16.08,9.36,22.55c7.15,11.44,18.94,16.08,32.43,17.48c0,8.88,0,17.08,0,25.47
		c8.99,0,17.36,0,26.64,0c0-8.93,0-17.33,0-26.02C320.97,805.64,333.37,805.64,347.03,805.64z M218.22,646.51
		c55.2-41.88,119.52-30.14,156.99,5.29c19.5,18.44,31.9,40.8,36.34,67.28c5.94,35.46-3.32,67.22-25.07,96
		c6.88,5.63,13.4,10.97,19.9,16.29c44.52-51.65,48.87-141.36-13.44-199.22c-62.42-57.96-148.71-44.17-190.64-5.15
		C207.46,633.32,212.65,639.68,218.22,646.51z M181.09,646.55c-31.58,41.97-41.84,87.41-25.82,136.58
		c18.14,55.69,57.48,89.57,115,100c42.8,7.76,81.49-3.66,116.13-30.96c-6.08-7.4-11.31-13.77-16.52-20.11
		c-57.37,43.35-123.2,28.46-159.94-8.05c-36.61-36.38-52.26-102.81-8.59-160.77C195.01,658.03,188.66,652.79,181.09,646.55z"/>
	<path d="M864.06,908.62c0-9.42-0.44-19.04,0.09-28.61c1.22-22.15-7.28-38.08-27.63-45.95c0-18.88,0-37.22,0-56.66
		c1.16-0.58,3.59-1.72,5.95-3.02c13.42-7.36,20.84-18.68,21.49-34.02c0.4-9.39,0.27-18.81,0.04-28.21
		c-0.53-21.82-17.36-39.09-39.08-39.2c-53.56-0.27-107.12-0.29-160.68,0.02c-21.29,0.12-38.19,17.39-38.7,38.69
		c-0.33,13.74-0.06,27.5-0.06,41.25c0.78,0.17,1.55,0.34,2.33,0.51c-1.89,0.96-3.78,1.92-5.67,2.89
		c-14.82,7.58-22.81,19.57-23.18,36.36c-0.13,6.08,0.29,12.19-0.08,18.25c-1.38,22.15,7.21,38.08,27.59,45.95
		c0,18.35,0,36.17,0,54.07c-36.35,7.02-54.91-18.24-54.39-44.24c1.11-55.85,0.51-111.73,0.23-167.6
		c-0.07-14.2,4.46-25.74,14.73-35.49c8.59-8.15,19.79-15.61,23.96-25.79c4.18-10.2,1.1-23.4,1.19-35.28c0.02-2.74,0-5.47,0-8.8
		c79.49,0,158.54,0,238.62,0c0,11.5,0.36,23.03-0.13,34.52c-0.3,7.12,1.44,12.48,6.99,17.35c7.67,6.72,14.61,14.29,21.72,21.64
		c7.44,7.69,11.16,17.02,11.17,27.73c0.03,58.91,0.1,117.82-0.03,176.73C890.47,889.78,879.16,904.8,864.06,908.62z"/>
	<path d="M597.83,451.58c57.65-57.75,114.8-115,173.18-173.49c-12.16-11.65-25.23-24.16-39.51-37.83
		c48.16-9.66,94.28-18.9,142.1-28.49c-9.45,47.44-18.68,93.83-28.04,140.82c-13.13-13.3-25.82-26.16-40.22-40.74
		c-2.92,4.11-4.35,6.88-6.45,8.99c-53.25,53.46-106.63,106.79-159.78,160.34c-4.29,4.32-8.52,5.94-14.46,5.85
		c-18.49-0.28-37,0.18-55.5-0.11c-2.8-0.04-6.16-1.94-8.26-4c-18.11-17.83-35.99-35.9-54.58-54.54c-2.33,2.23-4.49,4.22-6.56,6.3
		c-39.26,39.31-78.57,78.56-117.66,118.04c-4.07,4.11-7.14,4.7-12.68,2.68c-14.18-5.19-28.78-9.25-43.81-13.95
		c0.65-0.85,1.68-2.56,3.04-3.93c10.7-10.8,21.22-21.79,32.36-32.12c3.03-2.8,7.95-4.94,12.04-5
		c64.55-0.93,117.45-44.12,130.41-107.38c2.08-10.17,2.41-20.7,3.69-32.41c15.52,15.56,30.61,30.68,45.68,45.8
		C568.01,421.65,583.19,436.89,597.83,451.58z"/>
	<path d="M572.78,566.02c0-17.57,0-34.61,0-52.09c105.91,0,211.46,0,317.4,0c0,17.42,0,34.46,0,52.09
		C784.59,566.02,679.04,566.02,572.78,566.02z"/>
	<path d="M678.54,699.4c0,9.25,0,17.45,0,26.09c8.77,0,16.95,0,26.04,0c0-8.19,0-16.59,0-25.54c9.27,0,17.64,0,26.63,0
		c0,8.33,0,16.52,0,25.36c8.96,0,17.33,0,26.63,0c0-8.25,0-16.66,0-25.47c9.07,0,17.24,0,26.33,0c0,8.27,0,16.67,0,25.59
		c9.27,0,17.64,0,26.63,0c0-8.39,0-16.59,0-25.77c5.69,0,10.9-0.67,15.87,0.16c6.73,1.13,10.58,5.87,10.78,12.79
		c0.25,8.84,0.33,17.7-0.01,26.54c-0.32,8.22-5.46,13.26-13.91,13.28c-52.44,0.13-104.89,0.14-157.33,0.01
		c-9.16-0.02-13.97-5.31-14.2-14.71c-0.17-6.91-0.06-13.82-0.03-20.74c0.05-13.11,4.39-17.52,17.22-17.59
		C671.91,699.39,674.63,699.4,678.54,699.4z"/>
	<path d="M651.82,779.41c0,8.7,0,16.91,0,25.66c8.97,0,17.34,0,26.33,0c0-8.29,0-16.48,0-25.33c8.96,0,17.33,0,26.63,0
		c0,8.21,0,16.62,0,25.45c9.07,0,17.24,0,26.33,0c0-8.22,0-16.62,0-25.56c9.27,0,17.64,0,26.63,0c0,8.35,0,16.55,0,25.38
		c8.96,0,17.33,0,26.62,0c0-8.28,0-16.69,0-25.9c4.94,0,9.01-0.18,13.05,0.04c8.29,0.45,13.23,5.33,13.54,13.69
		c0.28,7.73,0.15,15.48,0.07,23.22c-0.12,11.34-4.82,16.1-16.19,16.12c-47.48,0.06-94.95,0.03-142.43,0.03
		c-26.13,0-26.95-0.82-26.95-26.94c0-0.83,0-1.66,0-2.49C625.44,780.71,628.14,778.2,651.82,779.41z"/>
	<path d="M810.86,884.82c0-8.51,0-16.71,0-25.92c5.42,0,10.34-0.55,15.09,0.13c7.18,1.03,11.25,5.75,11.49,13.04
		c0.28,8.56,0.27,17.15,0.02,25.71c-0.26,8.8-5.25,13.98-14.05,14c-52.44,0.13-104.89,0.13-157.33,0
		c-8.81-0.02-13.77-5.19-14.06-13.99c-0.24-7.46-0.11-14.93-0.06-22.4c0.09-11.95,4.65-16.52,16.49-16.65c2.99-0.03,5.99,0,9.87,0
		c0,8.9,0,17.32,0,26.13c9.06,0,17.23,0,26.32,0c0-8.32,0-16.71,0-25.62c9.27,0,17.64,0,26.63,0c0,8.44,0,16.64,0,25.44
		c8.96,0,17.34,0,26.63,0c0-8.36,0-16.77,0-25.55c9.07,0,17.25,0,26.33,0c0,8.39,0,16.79,0,25.66
		C793.3,884.82,801.48,884.82,810.86,884.82z"/>
</g>
</svg>
