<?xml version="1.0" encoding="utf-8"?>
<!-- Generator: Adobe Illustrator 24.0.1, SVG Export Plug-In . SVG Version: 6.00 Build 0)  -->
<svg version="1.1" id="Layer_1" xmlns="http://www.w3.org/2000/svg" xmlns:xlink="http://www.w3.org/1999/xlink" x="0px" y="0px"
	 viewBox="0 0 1000 1000" style="enable-background:new 0 0 1000 1000;" xml:space="preserve">
<g>
	<path d="M256.99,748.84c0-3.59,0-6.26,0-8.92c0-73.67-0.14-147.34,0.11-221.01c0.05-15.51-5.76-27.16-18.11-36.35
		c-38.53-28.65-76.81-57.66-115.31-86.36c-11.23-8.38-18.63-18.68-18.37-33.15c0.24-13.55,6.43-24.08,18.34-30.41
		c12.7-6.75,25.74-5.61,37.56,2.21c11.19,7.4,21.73,15.79,32.53,23.78c15.19,11.26,30.28,22.67,45.55,33.82
		c56.21,41.07,131.34,40.7,187.35-0.86c24.18-17.94,48.38-35.85,72.46-53.91c10.59-7.94,22.19-11.4,35.06-7.81
		c13.71,3.82,22.13,13.39,24.69,27.2c2.73,14.73-2.51,27.19-14.3,36.23c-25.48,19.52-51.27,38.63-76.93,57.9
		c-14.52,10.91-29.02,21.85-43.58,32.71c-11.2,8.35-16.51,19.53-16.5,33.41c0.02,74.42,0.01,148.84,0.03,223.26
		c0,2.43,0.24,4.86,0.4,7.75c31.73,0,62.92,0,94.66,0c0.15-2.8,0.4-5.22,0.4-7.64c0.03-35.84-0.11-71.68,0.16-107.52
		c0.05-6.55-1.36-9.81-8.58-8.86c-3.91,0.52-7.95,0.17-11.93,0.07c-13.77-0.34-24.48-8.04-28.93-20.73
		c-4.41-12.57-1.14-25.68,9.39-34.44c16.26-13.52,32.83-26.67,49.29-39.96c37.95-30.64,75.9-61.27,113.87-91.89
		c15.08-12.16,29.65-12.26,44.7-0.25c10.48,8.37,20.89,16.84,31.86,25.7c0.73-1.76,1.39-2.96,1.74-4.25
		c2.58-9.51,8.79-15.2,18.48-15.61c10.43-0.44,20.92-0.47,31.35-0.01c12.05,0.53,19.19,8.61,19.28,21.17
		c0.1,15.93,0.16,31.86-0.12,47.78c-0.09,5.18,1.38,8.73,5.56,12.05c17.93,14.24,35.6,28.78,53.3,43.3
		c12.68,10.41,16.59,23.25,11.49,37.04c-4.84,13.08-15.73,19.99-31.65,20.1c-3.19,0.02-6.38,0-10.18,0c0,41.63,0,82.5,0,124.43
		c4.55,0,8.94,0,13.33,0c21.16,0,42.31-0.08,63.47,0.03c10.64,0.05,17.03,6.86,15.64,16.24c-0.97,6.54-5.79,11.48-12.61,11.52
		c-30.36,0.19-60.73,0.3-91.09-0.06c-10.32-0.12-17.23-8.46-17.27-19.62c-0.11-27.63-0.04-55.25-0.04-82.88
		c0-18.92-0.06-37.83,0.03-56.75c0.06-13.09,7.76-20.68,20.97-20.88c5.72-0.09,11.46,0.17,17.17-0.13c1.97-0.1,3.88-1.43,5.81-2.2
		c-1.08-1.79-1.78-4.04-3.31-5.3c-19.01-15.67-37.88-31.52-57.37-46.59c-8.37-6.47-11.76-13.85-11.35-24.26
		c0.6-15.34,0.15-30.73,0.15-46.61c-4.75,0-8.58,0-13.35,0c0,5.14-0.06,9.8,0.01,14.46c0.11,7.51-2.1,13.83-9.3,17.27
		c-7.12,3.41-13.4,1.5-19.31-3.33c-16.19-13.22-32.58-26.19-48.7-39.5c-4.29-3.55-7.3-4.21-12.11-0.29
		c-52.12,42.39-104.46,84.53-156.73,126.73c-1.16,0.94-2.48,1.76-3.38,2.92c-0.98,1.27-1.56,2.86-2.31,4.31
		c1.62,0.82,3.22,2.3,4.86,2.35c7.71,0.26,15.43,0.12,23.14,0.15c15.16,0.07,22.59,7.32,22.6,22.34
		c0.05,45.55,0.05,91.09-0.01,136.64c-0.02,13.91-7.31,21.34-21.09,21.35c-118.72,0.05-237.44,0.04-356.16,0.01
		c-10.6,0-16.52-5.19-16.44-14.01c0.08-8.65,6.26-13.89,16.72-13.91c30.36-0.06,60.73-0.03,91.09-0.03
		C248.62,748.84,252.09,748.84,256.99,748.84z M339.76,748.35c0.14-3.05,0.37-5.71,0.37-8.36c0.03-31.54,0.04-63.08-0.01-94.61
		c0-2.69,0.29-6.01-1.1-7.9c-1.62-2.21-4.97-4.35-7.53-4.3c-2.15,0.04-4.57,3.02-6.22,5.19c-0.87,1.15-0.44,3.36-0.44,5.09
		c-0.02,33.03-0.03,66.05,0.01,99.08c0,1.89,0.4,3.78,0.63,5.81C330.35,748.35,334.72,748.35,339.76,748.35z"/>
	<path d="M331.39,394.85c-52.46-0.75-94.18-43.3-93.58-95.44c0.61-52.41,43.56-93.79,96.63-93.08c51.92,0.69,93.1,43.76,92.26,96.51
		C425.88,354.14,382.94,395.59,331.39,394.85z"/>
	<path d="M516.03,830.47c-99.28,0-198.56,0.01-297.83-0.01c-10.68,0-16.36-4.32-16.96-12.66c-0.56-7.9,4.31-14.05,12.23-15.15
		c2.45-0.34,4.97-0.2,7.45-0.2c196.07-0.01,392.13,0,588.2,0c2.99,0,5.99-0.16,8.95,0.13c7.85,0.78,13.38,7.08,13.03,14.58
		c-0.35,7.38-5.79,12.77-13.51,13.24c-2.48,0.15-4.97,0.07-7.46,0.07C712.1,830.47,614.06,830.47,516.03,830.47z"/>
	<path d="M795.66,343.02c-0.13,8.4-14.18,22.6-22.62,22.86c-10.78,0.33-18.44-11.03-12.69-20.09c3.75-5.9,9.18-11.31,15.04-15.15
		C784.38,324.75,795.83,332.21,795.66,343.02z"/>
	<path d="M819.09,316.07c-1.86-1.54-7.04-3.88-8.7-7.74c-1.67-3.89-1.34-10.14,0.79-13.82c2.99-5.18,7.84-10,13.05-12.93
		c3.7-2.08,10.17-2.46,13.81-0.55c3.63,1.9,6.8,7.36,7.46,11.68C846.8,301.36,830.8,316.5,819.09,316.07z"/>
	<path d="M832.53,367.44c-9.95-1.7-25.02-16.43-23.75-24.94c0.64-4.3,3.81-9.76,7.43-11.65c3.62-1.9,10.09-1.51,13.76,0.58
		c5.2,2.96,9.38,8.09,13.27,12.88c3.58,4.42,3.9,10.18,0.37,14.58C840.78,362.42,836.29,364.64,832.53,367.44z"/>
	<path d="M797.27,303.56c-3.14,3.74-5.61,9.19-9.6,10.74c-4.09,1.59-10.32,0.63-14.41-1.51c-4.62-2.42-9.01-6.83-11.41-11.46
		c-2.12-4.08-3.2-10.56-1.35-14.32c1.83-3.73,7.68-7.03,12.14-7.6C781.45,278.28,795.68,293.29,797.27,303.56z"/>
	<path d="M649.21,219.96c0.14,7.22-5.14,12.79-12.31,12.97c-7.64,0.2-15.47-7.27-15.63-14.9c-0.15-7.02,5.38-12.83,12.4-13.02
		C641.3,204.8,649.06,212.27,649.21,219.96z"/>
	<path d="M598.67,169.51c7.48,0.03,15.1,7.9,15.02,15.5c-0.08,7.35-5.34,12.5-12.72,12.46c-7.59-0.05-15.32-7.81-15.23-15.31
		C585.82,175.3,591.77,169.48,598.67,169.51z"/>
	<path d="M613.72,217.73c0.04,7.78-7.4,15.25-15.17,15.22c-7.12-0.03-12.76-5.62-12.79-12.66c-0.04-7.41,7.88-15.28,15.36-15.26
		C608.27,205.04,613.67,210.48,613.72,217.73z"/>
	<path d="M649.22,182.16c0.09,7.81-7.21,15.19-15.1,15.26c-7.25,0.06-12.75-5.25-12.85-12.42c-0.1-7.38,7.76-15.41,15.17-15.49
		C643.43,169.43,649.14,175.08,649.22,182.16z"/>
</g>
</svg>
