<?xml version="1.0" encoding="utf-8"?>
<!-- Generator: Adobe Illustrator 24.0.1, SVG Export Plug-In . SVG Version: 6.00 Build 0)  -->
<svg version="1.1" id="Layer_1" xmlns="http://www.w3.org/2000/svg" xmlns:xlink="http://www.w3.org/1999/xlink" x="0px" y="0px"
	 viewBox="0 0 1000 1000" style="enable-background:new 0 0 1000 1000;" xml:space="preserve">
<g>
	<path d="M437.11,377.56c-1.97,32.6-24.44,54.81-53.22,63.96c-7.04,2.24-14.43,3.46-21.71,4.83c-2.72,0.51-3.94,1.28-3.86,4.31
		c0.21,8.57,0.07,17.14,0.07,26.21c-5.71,0-11.06,0-16.41,0c-4.49,0-8.98-0.12-13.46,0.04c-2.52,0.09-3.33-0.77-3.3-3.29
		c0.13-8.7,0.05-17.41,0.05-26.61c-40.27-4.91-67.23-25.61-78.43-65.8c20.27-3.77,40.11-7.46,60.17-11.19
		c0.48,1.24,0.88,2.29,1.28,3.34c5.43,14.24,16.23,21.56,30.98,22.68c7.05,0.53,14.36-0.09,21.32-1.39
		c6.86-1.28,9.8-5.25,10.22-10.83c0.43-5.76-2.31-11.06-8.53-13.23c-8.66-3.03-17.65-5.2-26.58-7.37
		c-15.96-3.88-31.69-8.27-46.57-15.46c-23.35-11.29-33.55-36.95-31.41-58.68c3.3-33.52,23.88-55.93,57.89-63.57
		c3.09-0.69,7.47-0.49,8.92-2.44c1.63-2.2,0.69-6.35,0.73-9.66c0.06-5.38,0.01-10.77,0-16.16c0-1.57-0.17-3.13,2.22-3.12
		c10.11,0.05,20.21,0.02,30.83,0.02c0,9.77,0,19.19,0,28.77c34.41,4.11,60.33,19.22,72.93,53.05c-12.68,3.98-25.12,7.89-37.57,11.79
		c-4.52,1.42-9.06,2.78-13.55,4.27c-1.81,0.6-2.98,0.65-3.9-1.49c-6.87-15.96-21.59-20.79-37.8-19.3c-3.14,0.29-6.35,1.11-9.26,2.32
		c-4.68,1.94-7.06,5.78-7.09,10.9c-0.03,5.13,2.21,9.28,7.02,10.87c8.24,2.73,16.72,4.75,25.1,7.06
		c13.94,3.84,28.13,6.98,41.79,11.64C423,323.29,438.84,348.98,437.11,377.56z"/>
	<path d="M266.4,769.34c21.27-58.2,42.25-115.62,63.21-172.99c-43.96-5.21-83.43-20.8-118.57-47.08
		c-46.91-35.09-77.89-80.99-92.92-137.68c-7.13-26.88-8.76-54.28-5.9-81.66c4.37-41.84,19.36-80.1,43.94-114.26
		c32.27-44.85,74.77-76.12,127.47-93.03c26.75-8.58,54.18-11.65,82.38-10.28c53.05,2.58,99.54,21.73,140.17,54.93
		c45.48,37.15,74.38,84.98,86.1,142.66c2.82,13.9,4.35,28.22,4.74,42.39c0.35,12.89-6.65,23.87-22.49,25.53
		c-8.7,0.91-21.43-4.33-23.93-19.39c-0.9-5.41-1.11-10.96-1.35-16.46c-1.78-41.68-15.4-79.05-41.22-111.79
		c-28.66-36.32-66.28-58.96-111.37-67.4c-63.95-11.96-123.16-0.31-173.61,42.81c-31.56,26.97-50.96,61.7-60.25,102.34
		c-5.06,22.11-6.11,44.47-4.17,66.64c3.42,39.17,17,74.82,42.12,105.72c28.92,35.59,66.42,56.74,110.74,66.3
		c9.89,2.13,20.2,2.51,30.35,3.13c2.03,0.12,5.06-1.83,6.21-3.7c15.7-25.59,38.22-39.24,68.39-37.34
		c11.43,0.72,22.67,4.97,33.94,7.85c36.65,9.36,73.27,18.83,109.91,28.26c30.7,7.9,61.42,15.72,92.08,23.76
		c5.16,1.35,7.88,0.55,10.18-4.86c9.01-21.14,18.62-42.02,27.97-63.02c1.28-2.88,2.33-5.86,3.7-9.33
		c-21.82-7.2-43.1-14.3-64.43-21.23c-28-9.09-55.9-18.56-84.13-26.9c-20.92-6.18-39.93,2.13-51.76,20.52
		c-3.33,5.17-7.03,10.17-11.04,14.83c-6.84,7.96-16.06,10.56-25.13,6.95c-9.54-3.79-14.91-11.36-15.76-21.41
		c-0.31-3.73,1.14-8.14,3.12-11.44c14.67-24.52,34.18-43.29,62.43-51.53c23.4-6.83,46.14-5.41,69.22,2.48
		c44.73,15.29,89.79,29.6,134.72,44.3c0.39,0.13,0.81,0.15,1.97,0.36c2.71-5.69,5.64-11.5,8.27-17.44
		c23.19-52.31,46.31-104.65,69.5-156.96c18.37-41.42,36.78-82.83,55.24-124.21c3.73-8.36,15.1-15.92,22.26-14.62
		c12.15,2.22,19.69,9.97,21.75,18.79c1.32,5.65,0.2,10.29-1.82,14.9c-12.43,28.47-25.08,56.85-37.7,85.24
		c-15.03,33.82-30.12,67.62-45.14,101.44c-15.29,34.42-30.55,68.85-45.81,103.28c-17.67,39.86-35.33,79.73-53,119.59
		c-2.24,5.06-5,9.94-6.69,15.18c-2.58,7.98-5.28,16.09-6.4,24.34c-1.74,12.78-1.94,25.76-3.24,38.61
		c-1.74,17.25-4.05,34.44-5.85,51.68c-1.32,12.63-2.08,25.32-3.35,37.95c-1.27,12.63-2.89,25.23-4.3,37.85
		c-0.59,5.26-1.11,10.52-1.52,15.79c-0.75,9.7-1.38,19.4-2.15,30.38c14-3.52,27.28-6.54,40.38-10.22
		c40.61-11.42,79.68-26.82,116.87-46.77c16.44-8.82,33.39,0.01,36.29,18.75c1.12,7.24-5.3,17.5-13.85,22.02
		c-40.33,21.35-82.45,38.34-126.63,49.68c-25.96,6.66-52.29,12.06-78.7,16.64c-17.27,3-34.94,4.22-52.48,4.98
		c-25.34,1.1-50.73,1.67-76.08,1.3c-15.19-0.22-30.38-2.36-45.52-4.14c-14.04-1.65-28.04-3.77-42-6.04
		c-30.75-5.02-60.72-13.21-90.16-23.28c-53.09-18.15-102.68-43.32-147.99-76.41c-16.99-12.41-32.56-26.77-48.7-40.33
		c-6.36-5.34-9.8-15.73-5.69-25.37c3.42-8.02,12.68-15.02,21.41-14.79c9.08,0.24,15.69,5.8,21.97,11.67
		C207.71,731.38,235.74,750.97,266.4,769.34z M308.1,790.77c2.28,1.16,4.24,2.42,6.38,3.19c24.91,8.96,49.76,18.14,74.81,26.68
		c32.34,11.03,66.1,15.56,99.79,19.71c19.17,2.36,38.64,2.47,58,2.99c9.98,0.27,20-0.66,29.99-1.28
		c14.61-0.91,29.22-1.87,43.79-3.29c1.86-0.18,4.73-3.12,4.94-5.03c1.88-17.04,3.26-34.14,4.82-51.21
		c0.54-5.91,1.16-11.82,1.79-17.73c1.35-12.62,2.82-25.22,4.07-37.85c1.26-12.63,2.25-25.29,3.46-37.93
		c1.33-13.9,2.71-27.8,4.22-41.69c0.82-7.54,1.68-15.09,2.98-22.56c1.2-6.9,0.08-9.44-6.38-11.1
		c-45.25-11.61-90.53-23.12-135.78-34.77c-30.1-7.76-60.2-15.55-90.22-23.63c-16.77-4.51-20.82,1.05-25.8,13.48
		c-3.4,8.47-6.22,17.17-9.35,25.75C355.9,659.64,332.16,724.75,308.1,790.77z"/>
</g>
</svg>
