<?xml version="1.0" encoding="utf-8"?>
<!-- Generator: Adobe Illustrator 24.0.1, SVG Export Plug-In . SVG Version: 6.00 Build 0)  -->
<svg version="1.1" id="Layer_1" xmlns="http://www.w3.org/2000/svg" xmlns:xlink="http://www.w3.org/1999/xlink" x="0px" y="0px"
	 viewBox="0 0 1000 1000" style="enable-background:new 0 0 1000 1000;" xml:space="preserve">
<g>
	<path d="M357.07,799.78c-69.04,0-138.09,0-207.13,0c-7.38,0-7.4-0.02-7.39-7.29c0.05-68.32,0.58-136.65,0.04-204.97
		c-0.64-80.65,55.39-147.42,128.83-163.53c11.33-2.49,23.08-4.19,34.65-4.25c76.41-0.38,152.83-0.37,229.24-0.18
		c80.98,0.2,152.22,61.58,162.13,141.26c3.2,25.71,1.83,51.99,2.38,78.02c0.21,9.96-0.1,9.68-9.49,12.76
		c-66.05,21.69-105.75,66.46-117.96,135.17c-0.25,1.41-0.6,2.82-0.76,4.24c-0.97,8.77-0.96,8.77-9.56,8.77
		c-34.16,0-68.32,0-102.48,0C425.39,799.78,391.23,799.78,357.07,799.78z"/>
	<path d="M264.65,224.21c0.11-86.13,70.5-156.8,156.63-156.34c87.52,0.47,156.6,70.02,156.26,157.1
		c-0.34,87.08-69.97,155.46-155.94,155.74C334.68,381.01,264.54,310.58,264.65,224.21z"/>
	<path d="M857.45,811.1c-0.49,65.52-52.49,120.57-121.42,121.02c-66.32,0.43-120.93-53.9-122.14-118.74
		c-1.23-66.34,50.94-124.67,121.47-124.81C805.2,688.43,857.78,744.82,857.45,811.1z M773.85,771.89c0-9.24-4.17-17.63-13.9-21.93
		c-8.98-3.97-13.44-8.71-12.1-18.96c0.66-5.05-4.44-8.82-9.54-8.84c-5.43-0.02-9.73,3.65-10.26,9.03c-0.25,2.49-0.29,5.05-0.07,7.54
		c0.34,3.84-1.02,5.46-4.95,6.65c-24.82,7.45-32.74,39.18-14.18,57.25c5.2,5.06,11.7,8.81,17.69,13.05
		c5.12,3.62,10.66,6.7,15.45,10.7c3.97,3.31,5.05,8.05,3.41,13.26c-1.36,4.29-4.68,5.72-8.57,6.28c-5.61,0.8-9.45-2.27-11.93-9.24
		c-2.65-7.43-9.7-11.76-17.29-10.61c-9.75,1.48-15.05,6.95-15.25,15.75c-0.31,13.6,9.13,27.14,24.83,32.47
		c8.17,2.78,12.11,5.95,11.01,15.02c-0.63,5.22,4.57,9.29,9.82,9.33c5.28,0.04,9.59-3.82,10.1-9.19c0.19-1.96,0.33-3.98,0.08-5.92
		c-0.61-4.69,1.31-6.9,5.81-8.58c17.79-6.65,27.47-24.41,24.69-43.08c-2.42-16.26-12.05-26.75-25.71-34.4
		c-5.17-2.89-10.65-5.3-15.5-8.64c-2.59-1.79-5.09-4.86-5.85-7.8c-0.57-2.24,0.99-6.22,2.89-7.5c1.45-0.97,5.17,0.67,7.43,1.95
		c1.54,0.87,2.3,3.12,3.38,4.77c4.65,7.1,10.36,9.63,17.23,7.63C770.93,785.42,773.85,781.28,773.85,771.89z"/>
</g>
</svg>
