<?xml version="1.0" encoding="utf-8"?>
<!-- Generator: Adobe Illustrator 24.0.1, SVG Export Plug-In . SVG Version: 6.00 Build 0)  -->
<svg version="1.1" id="Layer_1" xmlns="http://www.w3.org/2000/svg" xmlns:xlink="http://www.w3.org/1999/xlink" x="0px" y="0px"
	 viewBox="0 0 1000 1000" style="enable-background:new 0 0 1000 1000;" xml:space="preserve">
<g>
	<path d="M318.74,718.49c46.77,3.07,91.38,6,135.98,8.94c0.5,0.03,1.04,0.22,1.49,0.09c5.47-1.64,10.92-3.32,16.38-4.99
		c-5.45-2.31-10.76-6.12-16.38-6.66c-20.34-1.95-40.79-2.69-61.19-4.1c-55.22-3.79-110.43-7.63-165.64-11.57
		c-17.37-1.24-19.26-4.11-18.82-21.22c0.51-19.91,11.59-32.43,27.77-41.18c17.41-9.41,35.93-13.57,56.13-12.14
		c48.74,3.46,97.54,6.74,146.37,8.17c15.3,0.45,33.16-1.26,45.8-8.78c80.85-48.14,167.17-46.75,255.42-31.9
		c22.59,3.8,44.92,9.24,67.57,12.54c9.27,1.35,19.44,0.46,28.54-1.95c14.96-3.96,27.66-1.25,38.93,8.65
		c11.1,9.75,14.85,22.18,11.04,36.49c-13.37,50.05-26.72,100.11-40.44,150.06c-5.94,21.62-19.85,31.43-40.41,29.77
		c-18.19-1.47-34.6-16.83-35.24-36.52c-0.34-10.32-4.95-13.39-12.49-17.18c-33.76-16.98-66.35-14.47-98.2,4.8
		c-16.2,9.8-32.33,19.73-48.47,29.63c-43.33,26.59-88.67,31.38-133.53,6.56c-52.68-29.14-103.76-61.17-155.5-92.03
		C322.35,723.09,321.36,721.36,318.74,718.49z"/>
	<path d="M209.17,647.87c-28.46-18.83-56.03-36.76-83.27-55.18c-19.45-13.15-23.63-36.96-10.55-56.32
		c12.69-18.77,33.51-23.26,53.31-10.81c45.88,28.84,91.57,57.99,137.38,88.68C268.66,610.7,236.05,619.65,209.17,647.87z"/>
	<path d="M377.25,618.45c-22.81,0.19-41.41,0.71-59.5-11.32c-43.52-28.94-88.88-55.12-132.26-84.25
		c-28.37-19.05-48.65-22.53-78.01,5.74c-5.66-13.83-1.5-29.08,11.03-40.47c12.79-11.63,28.86-13.72,44.03-4.46
		c33.16,20.22,66.02,40.93,98.96,61.5c35.9,22.41,71.76,44.88,107.62,67.35C371.05,613.74,372.81,615.2,377.25,618.45z"/>
	<path d="M420.19,624.32c-10.38-3.81-21.7-6.07-30.97-11.7c-51.92-31.53-103.34-63.87-154.92-95.96c-2.4-1.49-4.64-3.23-6.96-4.85
		c0.38-1.32,0.76-2.63,1.15-3.95c7.48,1.86,15.97,2.02,22.27,5.83c56.65,34.3,112.91,69.24,169.25,104.04
		c0.74,0.46,1.1,1.53,1.63,2.32C421.15,621.48,420.67,622.9,420.19,624.32z"/>
	<path d="M533.42,235.31c-86.36,0-156.38,70.01-156.38,156.38s70.01,156.38,156.38,156.38S689.8,478.05,689.8,391.69
		S619.79,235.31,533.42,235.31z M597.73,411.8c-1.33,22.02-16.5,37.02-35.95,43.2c-4.76,1.51-9.74,2.34-14.67,3.26
		c-1.84,0.35-2.66,0.86-2.61,2.91c0.14,5.79,0.05,11.58,0.05,17.7c-3.86,0-7.47,0-11.08,0c-3.03,0-6.07-0.08-9.09,0.03
		c-1.7,0.06-2.25-0.52-2.23-2.22c0.09-5.88,0.03-11.76,0.03-17.97c-27.2-3.32-45.41-17.3-52.97-44.44
		c13.69-2.55,27.09-5.04,40.64-7.56c0.32,0.84,0.59,1.55,0.86,2.25c3.67,9.62,10.96,14.56,20.92,15.32c4.76,0.36,9.7-0.06,14.4-0.94
		c4.64-0.86,6.62-3.54,6.9-7.31c0.29-3.89-1.56-7.47-5.76-8.94c-5.85-2.04-11.92-3.51-17.95-4.98c-10.78-2.62-21.4-5.58-31.45-10.44
		c-15.77-7.62-22.66-24.96-21.22-39.63c2.23-22.64,16.13-37.78,39.1-42.94c2.09-0.47,5.05-0.33,6.02-1.65
		c1.1-1.48,0.47-4.29,0.49-6.52c0.04-3.64,0.01-7.28,0-10.91c0-1.06-0.12-2.11,1.5-2.11c6.83,0.03,13.65,0.01,20.82,0.01
		c0,6.6,0,12.96,0,19.43c23.24,2.77,40.75,12.98,49.26,35.83c-8.56,2.69-16.97,5.33-25.38,7.97c-3.05,0.96-6.12,1.88-9.16,2.88
		c-1.23,0.41-2.01,0.44-2.64-1.01c-4.64-10.78-14.58-14.04-25.53-13.03c-2.12,0.19-4.29,0.75-6.25,1.57
		c-3.16,1.31-4.77,3.91-4.79,7.37c-0.02,3.46,1.49,6.27,4.74,7.34c5.57,1.84,11.29,3.21,16.95,4.77c9.42,2.59,19,4.71,28.22,7.86
		C588.2,375.15,598.9,392.5,597.73,411.8z"/>
</g>
</svg>
