<?xml version="1.0" encoding="utf-8"?>
<!-- Generator: Adobe Illustrator 24.0.1, SVG Export Plug-In . SVG Version: 6.00 Build 0)  -->
<svg version="1.1" id="Layer_1" xmlns="http://www.w3.org/2000/svg" xmlns:xlink="http://www.w3.org/1999/xlink" x="0px" y="0px"
	 viewBox="0 0 1000 1000" style="enable-background:new 0 0 1000 1000;" xml:space="preserve">
<g>
	<path d="M859.96,330.51c-1.45,1.48-2.94,4.21-5,4.74c-1.85,0.48-4.5-1.17-6.44-2.44c-1.02-0.67-1.3-2.5-1.88-3.82
		c-5.26-11.89-10.45-23.81-15.8-35.66c-2.5-5.54-2.18-9.2,1.57-10.7c4.87-1.94,7.46,0.94,9.26,4.94
		c5.48,12.19,10.94,24.39,16.34,36.61C858.73,325.8,859.08,327.59,859.96,330.51z"/>
	<path d="M717.01,765.98c1.64,1.5,4.33,2.81,4.6,4.51c0.36,2.22-0.43,5.69-2.04,6.97c-5.48,4.37-11.43,8.19-17.4,11.91
		c-6.58,4.1-13.38,7.83-20.08,11.74c-3.71,2.16-7.38,2.69-9.84-1.53c-2.53-4.34,0.17-6.99,3.75-9.18
		c11.84-7.25,23.62-14.6,35.45-21.85C712.95,767.62,714.66,767.05,717.01,765.98z"/>
	<path d="M592.29,837.19c-2.19-2.35-4.85-3.97-5.54-6.2c-1.22-3.98,1.53-6.27,5.23-7.42c11.35-3.52,22.7-7.06,34.04-10.63
		c2.92-0.92,5.81-2.77,8.68-2.7c2.33,0.05,5.65,1.83,6.59,3.77c0.77,1.59-0.76,6.12-2.27,6.69
		C623.89,826.4,608.54,831.55,592.29,837.19z"/>
	<path d="M453.68,846c-14.18-2.67-28.37-5.3-42.54-8.05c-4.05-0.79-6.82-3.19-5.65-7.61c1.14-4.28,4.48-4.9,8.62-4.15
		c13.49,2.44,27.03,4.67,40.57,6.84c4.15,0.66,7.72,1.99,7.42,6.83C461.79,844.84,458.01,845.65,453.68,846z"/>
	<path d="M811.28,255.58c-2.2-1.84-4.2-3.03-5.55-4.73c-8.61-10.89-17.04-21.92-25.61-32.84c-2.63-3.36-3.95-6.85-0.27-10
		c3.49-2.98,6.82-1.4,9.34,1.81c8.9,11.35,17.85,22.66,26.42,34.25c1.32,1.78,1.47,5.11,0.88,7.39
		C816.11,252.99,813.47,253.95,811.28,255.58z"/>
	<path d="M368.44,825.18c-2.75-0.82-4.36-1.13-5.83-1.77c-12.59-5.45-25.2-10.87-37.72-16.5c-5.09-2.29-6.65-5.74-4.58-9.24
		c2.54-4.29,5.98-3.48,9.85-1.75c12.7,5.67,25.48,11.15,38.25,16.65c3.33,1.43,5.9,3.64,4.64,7.37
		C372.33,822.06,369.88,823.62,368.44,825.18z"/>
	<path d="M513.13,847.58c-3.79,0-7.74,0.64-11.32-0.23c-2.23-0.54-5.3-3.27-5.43-5.19c-0.14-2.02,2.61-4.42,4.46-6.29
		c0.69-0.7,2.41-0.42,3.67-0.51c13.51-0.89,27.03-1.68,40.52-2.7c4.09-0.31,7.51,0.32,8.26,4.83c0.82,4.87-2.51,6.96-6.68,7.4
		c-11.13,1.15-22.29,2.03-33.44,3.02C513.16,847.79,513.14,847.69,513.13,847.58z"/>
	<path d="M179.45,247.63c5.74-0.14,8.49,3.53,7.01,7.67c-0.6,1.67-1.74,3.15-2.64,4.72c-6.38,11.13-12.79,22.24-19.13,33.39
		c-2.01,3.53-4.16,6.65-8.9,4.55c-3.79-1.68-4.57-5.11-1.74-10.15c6.82-12.13,13.83-24.14,20.98-36.07
		C176.2,249.79,178.48,248.5,179.45,247.63z"/>
	<path d="M240.12,177.12c1.95,1.53,4.38,2.5,4.91,4.1c0.63,1.9,0.18,4.64-0.82,6.46c-1.17,2.12-3.49,3.59-5.23,5.42
		c-8.21,8.62-16.45,17.21-24.54,25.95c-2.9,3.12-5.95,5.26-9.7,1.96c-3.43-3.03-2.37-6.52,0.44-9.5c9.4-9.98,18.8-19.95,28.34-29.79
		C235.19,179.98,237.52,178.89,240.12,177.12z"/>
	<path d="M314.71,123.81c1.53,1.48,4.34,2.95,4.59,4.77c0.3,2.16-0.97,5.43-2.69,6.78c-3.96,3.09-8.68,5.17-12.95,7.9
		c-7.77,4.97-15.48,10.03-23.11,15.21c-3.6,2.44-7.1,3.46-9.89-0.61c-2.71-3.95-0.26-6.95,2.99-9.07
		c11.82-7.69,23.72-15.25,35.64-22.79C310.62,125.14,312.27,124.77,314.71,123.81z"/>
	<path d="M111.91,458.53c0.76-11.17,1.52-22.35,2.27-33.52c0.28-4.16,2.06-7.08,6.66-6.79c4.43,0.28,5.53,3.42,5.35,7.29
		c-0.65,14.43-1.31,28.87-1.95,43.3c-0.15,3.49-1.58,6.12-5.27,6.41c-3.95,0.31-6.1-2.2-6.45-5.85c-0.34-3.58-0.07-7.21-0.07-10.82
		C112.27,458.54,112.09,458.54,111.91,458.53z"/>
	<path d="M121.7,507.11c2.91,3.32,5.53,4.96,6.01,7.07c3.3,14.76,6.21,29.61,9.12,44.46c0.69,3.54-1.06,6.15-4.52,6.89
		c-4.15,0.89-6.52-1.58-7.35-5.36c-2.63-11.96-5.15-23.95-7.59-35.95c-0.61-2.99-1.45-6.2-0.9-9.06
		C116.93,512.74,119.27,510.69,121.7,507.11z"/>
	<path d="M121.29,379.64c0.94-4.08,1.41-6.75,2.16-9.34c3.36-11.61,6.77-23.2,10.23-34.78c1.24-4.16,3.43-7.68,8.47-6.01
		c4.84,1.61,4.12,5.66,3.01,9.52c-3.84,13.35-7.67,26.7-11.52,40.04c-1,3.45-3.04,6.34-6.87,5.21
		C124.51,383.62,122.82,381,121.29,379.64z"/>
	<path d="M737.63,162.05c2.06,0.92,3.54,1.26,4.59,2.12c4.29,3.54,8.51,7.18,12.63,10.92c2.95,2.68,3.6,5.94,0.71,8.98
		c-2.7,2.85-5.79,2.33-8.65-0.08c-4.12-3.48-8.52-6.69-12.17-10.6c-1.51-1.61-2.19-4.89-1.75-7.12
		C733.32,164.61,736.03,163.41,737.63,162.05z"/>
	<path d="M417.17,660.6c-3.63,4.91-6.27,8.74-9.22,12.32c-0.77,0.93-2.5,1.32-3.84,1.46c-2.33,0.24-4.7,0.12-7.05,0.09
		c-3.71-0.05-7.39,0.54-7.62,5.01c-0.23,4.42,3.2,5.58,7,5.77c1.41,0.07,2.81,0.31,5.08,0.57c-5.9,18.6-5.64,36.81,2.15,55.39
		c-2.67,0.14-4.56,0.33-6.45,0.33c-63.71,0.02-127.41,0.03-191.12,0.04c-7.13,0-7.15-0.03-7.15-7.25
		c-0.02-108.95-0.04-217.91-0.05-326.86c0-7.76,0.03-7.78,7.85-7.78c18.1-0.01,36.2-0.01,54.3-0.02c1.95,0,3.9,0,6.82,0
		c-0.71,2.64-1.23,4.44-1.68,6.25c-1.17,4.73,0.57,7.29,5.43,7.88c1.61,0.19,3.25,0.13,4.88,0.13c38.55,0.01,77.1,0.01,115.65,0.01
		c1.45,0,2.91,0.06,4.34-0.11c4.96-0.58,6.67-3.06,5.43-7.81c-0.44-1.71-0.99-3.39-1.69-5.8c2.27-0.21,3.98-0.5,5.68-0.5
		c17.19-0.03,34.39,0.13,51.58-0.1c5.01-0.07,6.49,1.68,6.49,6.6c-0.13,75.47-0.14,150.94-0.03,226.41
		c0.01,4.74-1.52,6.34-6.23,7.36c-7.35,1.6-14.35,4.73-21.56,7.01c-3.71,1.17-7.56,2.68-11.35,2.7
		c-39.82,0.2-79.63,0.12-119.45,0.15c-2.7,0-5.64-0.28-8.03,0.66c-1.73,0.68-3.84,3.2-3.8,4.85c0.05,1.69,2.21,3.86,3.98,4.82
		c1.57,0.85,3.88,0.39,5.87,0.39c35.29,0.02,70.58,0.02,105.88,0.03C411.41,660.6,413.56,660.6,417.17,660.6z M210.65,482.65
		c0,7.77,0.06,15.55-0.02,23.32c-0.05,4.56,2.25,6.7,6.61,6.71c14.64,0.04,29.29,0.05,43.93-0.01c4.6-0.02,7.03-2.46,7.03-7.1
		c0.02-15.19,0.03-30.37-0.01-45.56c-0.01-4.84-2.35-7.22-7.4-7.18c-14.28,0.12-28.56,0-42.85,0.07c-5.91,0.03-7.22,1.43-7.29,7.5
		C210.59,467.83,210.65,475.24,210.65,482.65z M210.62,667.05c-0.01,0-0.02,0-0.02,0c0,7.6-0.06,15.2,0.02,22.8
		c0.06,6.02,1.48,7.56,7.27,7.6c14.12,0.09,28.23,0.09,42.35,0.02c6.01-0.03,7.92-1.77,7.98-7.74c0.15-14.84,0.08-29.68,0.06-44.52
		c-0.01-5.01-2.3-7.71-7.62-7.68c-14.3,0.09-28.59,0.09-42.89,0.01c-5.01-0.03-7.27,2.2-7.17,7.24
		C210.72,652.21,210.62,659.63,210.62,667.05z M210.65,574.66c-0.01,0-0.02,0-0.03,0c0,7.6-0.05,15.19,0.02,22.79
		c0.05,5.88,1.56,7.57,7.32,7.62c14.29,0.11,28.58,0.01,42.87,0.07c5,0.02,7.39-2.5,7.41-7.29c0.05-15.19,0.04-30.39-0.04-45.58
		c-0.02-4.51-2.2-7.06-7.01-7.04c-14.65,0.05-29.3,0.05-43.95,0.02c-4.51-0.01-6.63,2.11-6.59,6.63
		C210.7,559.47,210.65,567.07,210.65,574.66z M373.78,568.21c0,0.01,0,0.01,0,0.02c23.68,0,47.36,0.01,71.04-0.01
		c1.8,0,3.97,0.42,5.31-0.42c1.73-1.08,3.85-3.23,3.86-4.93c0.01-1.68-2.09-3.91-3.83-4.91c-1.54-0.88-3.87-0.5-5.85-0.5
		c-47-0.02-94-0.02-141-0.02c-1.62,0-3.61-0.46-4.79,0.29c-2.02,1.28-4.89,3.35-4.88,5.08c0.01,1.76,2.82,3.91,4.86,5.11
		c1.36,0.8,3.53,0.28,5.33,0.28C327.14,568.21,350.46,568.21,373.78,568.21z M373.51,500c0,0.01,0,0.02,0,0.02
		c23.31,0,46.63,0,69.94,0c1.63,0,3.25,0,4.88-0.04c3.26-0.09,5.82-1.31,5.86-4.95c0.05-3.97-2.66-5.17-6.14-5.23
		c-0.9-0.02-1.81-0.02-2.71-0.02c-47.71,0.01-95.42,0.02-143.13,0.03c-0.9,0-1.81,0-2.71,0.02c-3.47,0.07-6.23,1.23-6.15,5.21
		c0.07,3.61,2.59,4.88,5.89,4.93c1.63,0.03,3.25,0.04,4.88,0.04C327.25,500,350.38,500,373.51,500z M400.31,465
		c-15.02,0-30.04-0.01-45.06,0.01c-1.8,0-4-0.41-5.31,0.44c-1.85,1.2-4.03,3.31-4.21,5.21c-0.14,1.47,2.36,3.5,4.08,4.72
		c1.01,0.72,2.8,0.44,4.24,0.44c30.58,0.02,61.16,0.03,91.74,0c1.61,0,3.58,0.17,4.74-0.65c1.57-1.11,3.46-3.08,3.48-4.71
		c0.02-1.62-1.77-3.82-3.37-4.76c-1.55-0.91-3.85-0.7-5.82-0.71C429.99,464.97,415.15,464.99,400.31,465z M346.63,592.4
		c9.22,0,18.45,0,27.67,0c6.33,0,12.66-0.03,18.99-0.01c3.58,0.02,6.28-1.38,6.21-5.19c-0.07-3.76-2.79-5.16-6.37-5.07
		c-1.99,0.05-3.98-0.01-5.97-0.01c-24.42,0-48.83,0.01-73.25,0.01c-4.88,0-9.77,0-14.65,0.04c-3.29,0.03-5.83,1.33-5.94,4.91
		c-0.12,3.96,2.58,5.22,6.09,5.26c1.27,0.02,2.53,0.02,3.8,0.02C317.69,592.38,332.16,592.38,346.63,592.4z M324.34,674.49
		c-7.95,0-15.9,0-23.85,0c-3.73,0-7.19,0.69-7.18,5.35c0.01,4.3,3.33,5.28,6.8,5.29c16.08,0.08,32.16,0.09,48.23,0
		c3.7-0.02,7.17-1.18,6.93-5.75c-0.22-4.23-3.56-4.91-7.09-4.9C340.24,674.5,332.29,674.49,324.34,674.49z M313.57,475.77
		c5.04,0,10.09,0.12,15.13-0.04c3.34-0.11,6.15-1.38,6.13-5.34c-0.02-3.97-2.87-5.24-6.19-5.28c-9.72-0.12-19.45-0.12-29.17,0.01
		c-3.35,0.04-6.15,1.4-6.14,5.34c0.02,3.95,2.87,5.17,6.2,5.29C304.2,475.9,308.88,475.78,313.57,475.77z M431.47,582.14
		c-5.42,0-10.85,0.02-16.27-0.01c-3.52-0.02-6.33,1.25-6.38,5.06c-0.05,3.78,2.64,5.21,6.22,5.2c11.03-0.02,22.06,0,33.09-0.02
		c3.51-0.01,6.2-1.33,6.08-5.28c-0.11-3.57-2.62-4.92-5.92-4.94C442.68,582.12,437.08,582.15,431.47,582.14z"/>
	<path d="M469.96,649.53c34.59,0.12,61.41,27.53,61.23,62.56c-0.17,33.39-28.34,61.18-61.62,60.78
		c-34.48-0.41-62.11-28.36-61.82-62.54C408.04,676.63,435.89,649.41,469.96,649.53z M474.95,681.81c6.76,1.93,9.05,4.11,10.29,10.04
		c0.73,3.48,2.2,5.98,6.01,5.47c3.88-0.52,4.69-3.59,4.34-6.95c-0.96-9.32-6.83-14.66-14.8-18.54c-2.47-1.2-4.75-3.32-6.41-5.54
		c-2.54-3.39-7.24-4.14-8.83-0.42c-1.71,4-4.9,4.83-8.17,6.29c-8.11,3.63-13.76,9.35-14.41,18.72c-0.67,9.63,4.21,16.14,12.24,20.65
		c1.72,0.97,3.76,1.37,5.45,2.38c1.26,0.76,3.08,2.04,3.11,3.14c0.27,7.89,0.14,15.79,0.14,23.76c-7.1-0.87-10.38-3.99-12-11.05
		c-0.79-3.44-2.09-6.66-6.26-5.89c-4.23,0.78-5.05,4.21-4.31,8.02c1.96,10.07,8.55,15.88,17.69,19.59c2.26,0.92,4.41,2.72,5.96,4.64
		c2.74,3.39,6.15,3.47,9.07,0.24c1.9-2.1,4.29-4.16,6.88-5.18c10.2-4.02,16.78-12.13,16.99-21.7c0.24-10.76-6.48-19.15-18.34-23.49
		c-1.82-0.66-4.32-2.68-4.44-4.22C474.66,695.34,474.95,688.83,474.95,681.81z"/>
	<path d="M416.6,761.49c-2.69,0-4.58,0-6.47,0c-74.55,0.01-149.09,0.03-223.64,0.04c-7.98,0-7.99-0.01-7.99-8.06
		c-0.02-121.95-0.04-243.9-0.06-365.86c0-8.35,0.01-8.36,8.21-8.36c27.32,0,54.64,0.01,81.96,0.01c2.12,0,4.23,0,6.38,0
		c-0.39,8.43-1.56,9.67-8.75,9.68c-22.8,0.03-45.59,0.01-68.39,0.03c-8.08,0.01-9.65,1.48-9.65,9.42
		c-0.04,114.9-0.06,229.79-0.06,344.69c0,7.37,1.5,8.75,9.05,8.75c68.39,0.02,136.79,0.15,205.18-0.15
		C409.69,751.64,413.06,755.05,416.6,761.49z"/>
	<path d="M389.51,402.67c-37.57,0-73.73,0-110.88,0c4.01-10.39,7.63-20.16,11.67-29.75c0.52-1.24,3.16-2.16,4.86-2.23
		c6.49-0.26,13-0.17,19.51-0.1c4.69,0.05,7.4-1.54,7.71-6.8c0.36-6.05,4.94-9.48,11.62-9.49c6.8-0.01,11.12,3.27,11.55,9.47
		c0.36,5.16,3.05,6.89,7.76,6.84c6.5-0.06,13.01-0.15,19.51,0.11c1.71,0.07,4.36,0.98,4.89,2.22
		C381.73,382.34,385.32,391.93,389.51,402.67z"/>
	<path d="M392.64,379.64c2.36-0.14,4.29-0.34,6.21-0.35c26.23-0.02,52.47,0.1,78.7-0.11c5.03-0.04,6.9,1.17,6.89,6.59
		c-0.17,82.5-0.13,165-0.15,247.51c0,6.2-1.38,7.62-6.14,5.82c-1.43-0.54-2.87-2.54-3.23-4.12c-0.56-2.41-0.2-5.03-0.2-7.57
		c-0.01-74.9-0.02-149.81-0.03-224.71c0-1.99,0.05-3.98-0.04-5.97c-0.28-5.88-2.08-7.76-8.01-7.78
		c-17.91-0.08-35.82-0.03-53.73-0.03c-3.44,0-6.88,0.01-10.31,0C394.75,388.91,394.63,388.8,392.64,379.64z"/>
	<path d="M335.6,167.86c2.52-1.85,4.87-3.99,7.57-5.5c28.78-15.99,57.72-31.68,86.38-47.89c13.08-7.39,27.48-8.55,41.75-10.63
		c17-2.48,34.03-4.66,51.03-7.15c11.76-1.73,23.12-0.14,34.11,3.98c21.34,8,42.54,16.35,63.89,24.31
		c4.88,1.82,10.11,2.77,15.22,3.92c2.93,0.66,4.26,2.1,4.26,5.21c-0.07,28.04-0.07,56.09-0.01,84.13c0.01,3.25-1.3,4.8-4.51,4.42
		c-14.19-1.68-26.05,4.29-37.75,11.15c-12.49,7.33-25.07,14.6-39.8,16.56c-4.83,0.64-9.7,1.32-14.57,1.42
		c-26.04,0.56-52.09,0.98-78.13,1.36c-3.42,0.05-6.91-0.09-10.24-0.75c-10.27-2.02-15.5-8.01-15.85-17.68
		c-0.37-9.89,4.94-17.76,14.45-20.41c7.66-2.13,15.49-3.63,23.26-5.36c18-4.03,36-8.07,54.02-12.02c4.88-1.07,9.37-2.69,9.74-8.49
		c0.35-5.47-3.09-8.52-7.91-10.39c-14.15-5.48-28.12-11.49-42.45-16.44c-15.59-5.38-30.69-3.38-44.73,5.52
		c-1.52,0.97-3.22,1.65-4.77,2.58c-5.39,3.24-9.97,3.25-15.9-0.35c-27.4-16.64-55.67-17.19-84.24-2.66c-1.38,0.7-2.73,1.46-4.1,2.19
		C336.07,168.53,335.83,168.19,335.6,167.86z"/>
	<path d="M380.39,297.77c-30.88-0.07-55.19-22.91-56.99-55.25c-1.58-28.3,18.99-53.37,47.89-58.34c23.6-4.05,48.18,8,59.27,29.27
		c1.06,2.04,1.17,5.35,0.31,7.5c-4.24,10.59-3.02,20.39,2.48,30.19c1.29,2.3,1.7,5.95,0.87,8.43
		C426.48,282.56,404.72,297.82,380.39,297.77z M374.77,271.05c-7.37-1.12-11.09-4.46-12.51-11.1c-0.8-3.72-1.93-7.08-6.48-6.04
		c-4.49,1.02-4.28,4.97-3.61,8.42c1.91,9.85,8.49,15.5,17.42,19.17c2.44,1,4.68,2.94,6.47,4.93c2.63,2.94,6.58,3.76,8.13,0.52
		c1.95-4.07,5.34-4.91,8.83-6.29c13.36-5.28,19.61-18.59,14.21-30.72c-3.28-7.38-9.47-11.61-16.96-14.25
		c-1.65-0.58-4.13-2.13-4.2-3.35c-0.4-7.09-0.2-14.22-0.2-21.84c6.33,1.88,9.73,5.14,10.6,10.75c0.55,3.58,2.66,6.27,6.08,5.07
		c1.87-0.65,3.95-4.29,3.83-6.47c-0.53-9.54-6.47-15.36-14.94-18.8c-2.86-1.16-5.29-2.01-6.58-5.53c-1.57-4.27-6.18-3.9-8.98-0.21
		c-1.68,2.21-4.03,4.36-6.55,5.41c-9.43,3.93-15.84,11.83-16.07,20.66c-0.22,8.63,5.99,17.05,15.5,20.98
		c1.17,0.48,2.5,0.69,3.53,1.36c0.98,0.63,2.35,1.7,2.37,2.6C374.85,254.52,374.77,262.73,374.77,271.05z"/>
	<path d="M677.84,175.92c-0.01,15.36-0.17,30.72,0.09,46.08c0.08,4.82-1.57,6.44-6.27,6.13c-5.04-0.33-10.13-0.31-15.17-0.01
		c-4.49,0.26-6.04-1.43-5.98-5.89c0.19-14.09,0.06-28.19,0.05-42.28c0-16.99,0.13-33.97-0.08-50.95c-0.06-4.78,1.65-6.47,6.33-6.2
		c5.04,0.29,10.13,0.27,15.17,0c4.51-0.24,6,1.54,5.94,5.98C677.74,144.47,677.85,160.2,677.84,175.92z"/>
	<path d="M444.89,205.49c-3.76,4.84-5.49,1.8-7.6-1.37c-24.66-37.1-75.65-42.05-105.96-9.64c-18.63,19.93-23.58,43.87-14.09,69.55
		c9.32,25.19,28.09,40.12,54.81,43.57c31.41,4.06,59.45-12.94,71.37-42.35c1.47-3.63,2.97-5.3,6.54-2.52
		c-1.91,23.03-34.7,49.38-62.41,51.44c-43.61,3.25-73.79-27.48-79.71-60.24c-6.63-36.68,14.83-72.2,50.66-83.7
		C391.5,159.62,430.59,175.45,444.89,205.49z"/>
	<path d="M441.27,181.42c13.35-8.62,27.05-15.52,43.31-10.5c10.15,3.13,20.07,7,30.03,10.7c3.45,1.28,6.72,3.05,9.94,5.77
		c-3.25,0.79-6.5,1.62-9.76,2.35c-17.78,4.01-35.59,7.86-53.31,12.07c-4.26,1.01-6.38,0.03-8.59-3.8
		C449.58,192.28,445.31,187.1,441.27,181.42z"/>
	<path d="M704.51,444.54c46.87,0,93.75,0,140.62,0c7.48,0,7.51,0.02,7.51,7.42c0,60.81,0.01,121.62-0.04,182.42
		c-0.02,21.83-13.79,35.62-35.6,35.63c-75.29,0.04-150.57,0.04-225.86,0.02c-21.35-0.01-35.08-13.6-35.1-34.86
		c-0.06-61.17-0.03-122.34-0.03-183.51c0-7.12,0.04-7.16,7.33-7.16c47.05-0.01,94.11-0.01,141.16-0.01
		C704.51,444.53,704.51,444.53,704.51,444.54z M703.55,653.02c0,0.01,0,0.01,0,0.02c32.94,0,65.88,0.01,98.83,0
		c20.82-0.01,33.14-12.26,33.15-33.04c0.02-43.44,0-86.88-0.02-130.32c-0.01-21.19-12.22-33.47-33.3-33.47
		c-65.88-0.01-131.77,0-197.65,0.02c-20.72,0.01-33.21,12.42-33.23,33.08c-0.04,43.62-0.04,87.24-0.02,130.86
		c0.01,20.37,12.5,32.83,32.88,32.84C637.3,653.03,670.42,653.02,703.55,653.02z"/>
	<path d="M830.27,386.37c11.94,2.76,21.46,14.85,22.22,27.49c0.32,5.23,0.03,10.49,0.17,15.73c0.08,3.15-1.06,4.82-4.39,4.59
		c-1.08-0.07-2.17,0-3.26,0c-93.34,0.02-186.68,0.03-280.03,0.05c-8.97,0-9-0.01-8.97-8.79c0.02-4.52-0.12-9.07,0.32-13.55
		c1.14-11.69,10.7-23.15,21.6-25.32c0,5.67-0.57,11.27,0.18,16.68c0.6,4.26,1.97,8.97,4.55,12.26c3.81,4.85,9.64,6.21,15.75,4.04
		c6.69-2.37,10.21-7.39,10.72-14.29c0.39-5.4,0.31-10.85,0.13-16.27c-0.13-3.98,1.41-5.45,5.4-5.38
		c10.67,0.18,21.35,0.16,32.02,0.01c3.76-0.05,5.2,1.35,5.07,5.08c-0.18,5.06-0.14,10.13,0,15.19c0.27,9.54,6.51,16.27,15.19,16.58
		c8.36,0.3,15.07-5.85,15.92-15.2c0.51-5.57,0.34-11.2,0.27-16.81c-0.05-3.44,1.29-4.87,4.8-4.83c11.03,0.12,22.07,0.11,33.1,0.02
		c3.23-0.03,4.59,1.22,4.52,4.47c-0.12,5.24-0.1,10.49,0.02,15.74c0.21,9.48,6.48,16.29,15.14,16.61
		c8.43,0.31,15.34-6.3,16.01-15.77c0.38-5.4,0.26-10.85,0.18-16.27c-0.05-3.48,1.42-4.82,4.88-4.78c11.03,0.11,22.07,0.1,33.1,0
		c3.27-0.03,4.54,1.27,4.46,4.51c-0.13,5.42-0.12,10.86,0.02,16.28c0.23,9.21,7.01,16.08,15.67,16.06
		c8.61-0.01,15.08-6.92,15.21-16.33C830.33,398.42,830.27,392.67,830.27,386.37z"/>
	<path d="M672.26,386.8c0,5.59,0.02,11.19,0,16.78c-0.01,3.26-1.13,5.86-4.85,5.85c-3.76,0-4.76-2.67-4.76-5.9
		c-0.01-11.37-0.21-22.75,0.21-34.1c0.07-1.96,2.55-5.08,4.36-5.44c3.37-0.68,5.01,2.13,5.03,5.48
		C672.29,375.25,672.26,381.03,672.26,386.8z"/>
	<path d="M819.91,386.41c0,5.61,0.03,11.21-0.02,16.82c-0.03,3.15-0.88,6-4.61,6.17c-4.13,0.19-5.07-2.82-5.09-6.19
		c-0.05-11.03-0.04-22.06,0-33.09c0.01-3.09,0.61-6.04,4.53-6.1c4-0.06,5.19,2.6,5.19,6.12
		C819.91,375.56,819.92,380.99,819.91,386.41z"/>
	<path d="M746.09,386.8c0,5.59,0.06,11.18-0.02,16.77c-0.05,3.17-1.12,5.88-4.87,5.86c-3.76-0.02-4.76-2.71-4.76-5.92
		c-0.03-11.18-0.03-22.36,0-33.54c0.01-3.14,0.82-6.07,4.55-6.15c3.92-0.09,5.11,2.75,5.12,6.21c0.02,5.59,0,11.18,0,16.77
		C746.1,386.8,746.1,386.8,746.09,386.8z"/>
	<path d="M598.47,386.57c0.01,5.58,0.03,11.16,0,16.75c-0.01,3.14-0.81,5.96-4.57,6.12c-4.06,0.17-5.12-2.64-5.12-6.09
		c-0.01-11.16-0.02-22.33,0.01-33.49c0.01-3.2,0.96-5.89,4.77-5.85c3.67,0.04,4.88,2.54,4.89,5.82
		C598.48,375.4,598.46,380.99,598.47,386.57z"/>
	<path d="M252.58,463.11c-4.77,6.7-8.6,12.07-13.78,19.35c-2.56-3.36-4.19-6.62-6.8-8.55c-1.85-1.37-5.71-2.13-7.46-1.11
		c-3.19,1.87-2.36,5.4-0.08,7.97c3.6,4.05,7.33,7.99,11.22,11.76c3.22,3.12,6.52,2.8,9.23-0.83c3.86-5.15,7.61-10.39,12.52-15.32
		c0,7.47,0.14,14.95-0.16,22.42c-0.04,1.06-2.25,2.89-3.49,2.92c-9.75,0.24-19.52,0.29-29.26-0.04c-1.27-0.04-3.47-2.57-3.51-4
		c-0.31-10.11-0.31-20.24-0.02-30.35c0.04-1.44,2.18-3.99,3.42-4.04C233.21,462.94,242.04,463.11,252.58,463.11z"/>
	<path d="M220.87,667.01c0-4.7,0.08-9.4-0.03-14.1c-0.08-3.19,1.25-4.63,4.48-4.6c9.22,0.06,18.43,0.06,27.65,0
		c3.16-0.02,4.58,1.31,4.55,4.55c-0.09,9.76-0.09,19.52,0,29.28c0.03,3.19-1.29,4.62-4.5,4.61c-9.22-0.05-18.43-0.06-27.65,0.01
		c-3.18,0.02-4.6-1.32-4.52-4.56C220.95,677.13,220.87,672.07,220.87,667.01z"/>
	<path d="M257.5,574.87c-0.01,5.06-0.06,10.13,0.01,15.19c0.04,2.94-1.27,4.31-4.22,4.29c-9.4-0.04-18.81-0.05-28.21-0.01
		c-2.94,0.01-4.25-1.28-4.24-4.25c0.06-10.13,0.04-20.25,0-30.38c-0.01-2.96,1.35-4.27,4.28-4.25c9.4,0.04,18.81,0.05,28.21-0.02
		c2.98-0.02,4.26,1.26,4.2,4.24C257.43,564.74,257.5,569.81,257.5,574.87z"/>
	<path d="M475.33,741.26c0-8.44,0-16.41,0-24.44c6.73,0.92,11.79,5.76,12.18,11.3C487.91,733.95,483.29,739.19,475.33,741.26z"/>
	<path d="M464.02,703.3c-7.18-2.41-10.94-6.63-10.69-11.37c0.26-4.79,4.12-8.7,9.97-9.86c0.23,0.79,0.68,1.6,0.69,2.42
		C464.05,690.58,464.02,696.68,464.02,703.3z"/>
	<path d="M386.3,246.29c7.72,1.25,12.58,6.59,12.34,13.01c-0.22,5.95-5.16,10.85-12.34,11.73
		C386.3,262.86,386.3,254.77,386.3,246.29z"/>
	<path d="M374.46,232.42c-6.37-1.24-10.39-5.48-10.47-10.71c-0.08-5.37,3.67-9.44,10.47-10.84
		C374.46,218.1,374.46,225.22,374.46,232.42z"/>
	<path d="M671.39,580.19c-7.05,0-14.11-0.08-21.16,0.03c-3.39,0.05-4.92-1.17-4.89-4.74c0.11-13.93,0.11-27.85,0-41.78
		c-0.03-3.6,1.56-4.71,4.92-4.69c14.29,0.09,28.58,0.11,42.87-0.01c3.64-0.03,5.2,1.16,5.16,5c-0.15,13.74-0.15,27.49-0.01,41.24
		c0.04,3.86-1.58,5.06-5.19,4.99C685.86,580.09,678.62,580.19,671.39,580.19z"/>
	<path d="M735.07,529.06c7.05,0,14.1,0.11,21.15-0.04c3.58-0.07,5.28,1.06,5.24,4.94c-0.14,13.74-0.14,27.48,0,41.22
		c0.04,3.79-1.5,5.08-5.15,5.06c-14.28-0.11-28.56-0.12-42.84,0.01c-3.87,0.03-4.95-1.67-4.92-5.26
		c0.12-13.56,0.16-27.12-0.02-40.67c-0.05-4.06,1.47-5.42,5.41-5.31C720.96,529.2,728.02,529.06,735.07,529.06z"/>
	<path d="M672.24,591.08c6.87,0,13.75,0.15,20.61-0.05c3.88-0.12,5.51,1.08,5.45,5.22c-0.2,13.56-0.2,27.12-0.02,40.68
		c0.05,4.11-1.6,5.33-5.46,5.29c-13.92-0.13-27.84-0.14-41.76,0.02c-4.12,0.05-5.81-1.31-5.75-5.63c0.2-13.38,0.23-26.76-0.01-40.14
		c-0.08-4.48,1.76-5.58,5.8-5.46C658.14,591.23,665.19,591.08,672.24,591.08z"/>
	<path d="M734.92,591.09c7.23,0.01,14.46,0.11,21.68-0.04c3.45-0.07,4.86,1.19,4.83,4.72c-0.11,13.73-0.11,27.47,0,41.2
		c0.03,3.63-1.2,5.26-5,5.23c-14.28-0.11-28.55-0.1-42.83,0.01c-3.72,0.03-5.11-1.39-5.07-5.12c0.13-13.73,0.14-27.47-0.02-41.2
		c-0.05-3.95,1.7-4.94,5.25-4.86C720.82,591.2,727.87,591.08,734.92,591.09z"/>
	<path d="M798.99,529.06c7.05,0,14.09,0.13,21.13-0.05c3.74-0.09,5.1,1.36,5.06,5.09c-0.14,13.55-0.15,27.1-0.01,40.64
		c0.04,3.86-1.14,5.54-5.25,5.5c-14.09-0.16-28.18-0.15-42.27-0.01c-3.97,0.04-5.43-1.45-5.39-5.41c0.14-13.37,0.16-26.74-0.01-40.1
		c-0.05-4.15,1.29-5.88,5.6-5.73C784.9,529.24,791.95,529.06,798.99,529.06z"/>
	<path d="M671.49,518.15c-7.05,0-14.11-0.13-21.16,0.05c-3.8,0.1-5.05-1.45-5.02-5.13c0.13-13.56,0.15-27.13-0.01-40.69
		c-0.05-4.02,1.49-5.41,5.42-5.38c14.1,0.13,28.21,0.15,42.32,0c4.08-0.04,5.3,1.62,5.26,5.5c-0.15,13.56-0.15,27.13,0,40.69
		c0.04,3.82-1.43,5.09-5.11,5.01C685.96,518.03,678.72,518.15,671.49,518.15z"/>
	<path d="M734.53,518.15c-7.05,0-14.1-0.1-21.14,0.04c-3.43,0.07-4.88-1.16-4.85-4.71c0.11-13.91,0.11-27.83,0-41.75
		c-0.03-3.6,1.59-4.72,4.93-4.7c14.28,0.08,28.56,0.1,42.83,0c3.65-0.03,5.19,1.27,5.16,5.06c-0.13,13.73-0.14,27.47,0.01,41.2
		c0.04,3.91-1.68,4.98-5.25,4.9C748.99,518.04,741.76,518.15,734.53,518.15z"/>
	<path d="M608.67,529.04c6.7,0,13.4,0.15,20.09-0.06c4.12-0.13,5.87,1.25,5.81,5.58c-0.18,13.39-0.15,26.79-0.02,40.18
		c0.04,3.89-1.31,5.55-5.35,5.51c-13.94-0.14-27.87-0.11-41.81-0.01c-3.62,0.02-5.27-1.25-5.24-5.05c0.11-13.75,0.12-27.51,0-41.27
		c-0.03-3.9,1.8-4.99,5.34-4.92C594.55,529.13,601.61,529.04,608.67,529.04z"/>
	<path d="M798.81,591.09c7.04,0,14.08,0.12,21.12-0.05c3.58-0.09,5.33,0.95,5.25,4.87c-0.19,8.48,0.18,16.98-0.15,25.45
		c-0.53,13.61-8.05,20.66-21.75,20.79c-8.3,0.08-16.61-0.14-24.91,0.08c-4.3,0.11-6.18-1.23-6.11-5.83
		c0.21-13.35,0.18-26.72,0.01-40.07c-0.05-4.04,1.49-5.4,5.42-5.29C784.72,591.25,791.77,591.09,798.81,591.09z"/>
	<path d="M798.54,518.14c-7.04,0-14.08-0.11-21.12,0.05c-3.67,0.09-5.18-1.25-5.15-5.02c0.13-13.72,0.13-27.44,0.01-41.16
		c-0.03-3.86,1.71-5.01,5.26-4.96c9.39,0.12,18.78-0.1,28.16,0.12c10.17,0.23,17.8,6.52,18.75,16.71
		c0.95,10.2,0.63,20.54,0.45,30.82c-0.02,1.17-2.67,3.22-4.17,3.29C813.35,518.32,805.95,518.13,798.54,518.14z"/>
	<path d="M608.34,591.07c6.87,0,13.75,0.13,20.61-0.05c3.79-0.1,5.65,1.01,5.6,5.17c-0.16,13.56-0.14,27.12-0.02,40.69
		c0.04,4.03-1.68,5.41-5.54,5.35c-9.22-0.15-18.45,0.13-27.66-0.12c-11.38-0.31-18.9-7.98-19.11-19.32
		c-0.16-8.68,0.09-17.36-0.1-26.04c-0.09-4.13,1.27-5.91,5.61-5.75C594.59,591.25,601.47,591.07,608.34,591.07z"/>
	<path d="M608.09,518.16c-6.87,0-13.75-0.14-20.62,0.06c-4.04,0.12-5.42-1.54-5.35-5.45c0.17-9.22-0.13-18.46,0.15-27.67
		c0.29-9.72,7.97-17.55,17.68-17.88c9.94-0.34,19.89-0.06,29.84-0.17c3.55-0.04,4.74,1.63,4.72,4.98
		c-0.07,13.75-0.1,27.5,0.03,41.24c0.04,3.88-1.72,5-5.29,4.93C622.2,518.06,615.15,518.16,608.09,518.16z"/>
</g>
</svg>
