<?xml version="1.0" encoding="utf-8"?>
<!-- Generator: Adobe Illustrator 24.0.1, SVG Export Plug-In . SVG Version: 6.00 Build 0)  -->
<svg version="1.1" id="Layer_1" xmlns="http://www.w3.org/2000/svg" xmlns:xlink="http://www.w3.org/1999/xlink" x="0px" y="0px"
	 viewBox="0 0 1000 1000" style="enable-background:new 0 0 1000 1000;" xml:space="preserve">
<g>
	<path d="M328.41,234.6c0-9.65,0-18.36,0-27.06c0-37.44,0.14-74.88-0.14-112.32c-0.05-5.95,1.57-9.51,6.89-12.3
		c18.92-9.93,37.12-21.46,56.66-29.9c10.62-4.59,23.4-5.72,35.21-5.76c116.95-0.4,233.89-0.31,350.84-0.2
		c38.86,0.03,72.27,13.83,99.92,41.25c22.17,21.98,44.29,44.01,66.11,66.34c10.41,10.66,11.27,26.34,3.02,37.51
		c-7.84,10.61-22.83,14.52-34.95,8.45c-4.24-2.12-8-5.54-11.42-8.93c-18.95-18.76-37.85-37.57-56.52-56.62
		c-17.1-17.45-37.57-25.75-62.01-25.61c-52.62,0.3-105.25,0.36-157.88-0.02c-25.21-0.18-46.19,8.42-63.54,26.63
		c-8.52,8.94-17.93,17.08-26,26.4c-6.55,7.56-13.74,11.22-23.66,9.68c-3.14-0.48-6.41-0.08-10.27-0.08c0,10.42,0,20.29,0,31.26
		c3.61,0,7.07,0,10.54,0c31.84,0,63.67-0.07,95.51,0.03c19.68,0.06,33.77,13.36,33.64,31.46c-0.13,17.69-14.08,30.94-33.14,31
		c-38.33,0.12-76.67,0.22-115-0.06c-31.89-0.23-61.3-9.25-88.65-25.76c-5.19-3.13-11.89-4.95-17.98-5.16
		C366.84,234.18,348.08,234.6,328.41,234.6z"/>
	<path d="M48.35,47.44c83.04,0,165.42,0,248.33,0c0,72.56,0,144.7,0,217.63c-82.4,0-165.02,0-248.33,0
		C48.35,192.99,48.35,120.62,48.35,47.44z"/>
	<path d="M568.68,172.07c8.29-8.11,13.68-15.7,21-19.97c8.94-5.21,19.44-10.6,29.36-10.78c55.55-1.02,111.12-0.49,166.69-0.51
		c7.99,0,14.56,2.21,20.8,8.06c34.09,31.96,52.1,71,52.14,117.79c0.16,194.74,0.07,389.48,0.07,584.22c0,2.56,0,5.12,0,8.33
		c-20.83,0-41.08,0-62.39,0c0-3.98,0-7.79,0-11.59c0-192.79,0.04-385.57-0.03-578.36c-0.02-46.23-27.42-82.77-70.16-94.06
		c-24.1-6.36-47.07-3.16-68.65,9.01c-4.85,2.74-7.93,3.33-12.69-0.35c-10.87-8.39-23.59-11.96-37.36-11.82
		C595.51,172.16,583.56,172.07,568.68,172.07z"/>
	<path d="M892.35,891.57c3.39,20.44,6.74,40.58,10.2,61.47c-50.06,0-99.26,0-149.92,0c3.36-20.56,6.68-40.85,10.05-61.47
		C805.89,891.57,848.36,891.57,892.35,891.57z"/>
	<path d="M546.9,297.58c21.29,0,41.29,0,61.98,0c0,22.47,0.89,44.54-0.3,66.49c-0.86,15.8-16.14,27.41-31.89,26.79
		c-15.32-0.61-29.05-12.9-29.6-28.35C546.34,341.13,546.9,319.7,546.9,297.58z"/>
</g>
</svg>
