<?xml version="1.0" encoding="utf-8"?>
<!-- Generator: Adobe Illustrator 24.0.1, SVG Export Plug-In . SVG Version: 6.00 Build 0)  -->
<svg version="1.1" id="Layer_1" xmlns="http://www.w3.org/2000/svg" xmlns:xlink="http://www.w3.org/1999/xlink" x="0px" y="0px"
	 viewBox="0 0 1000 1000" style="enable-background:new 0 0 1000 1000;" xml:space="preserve">
<path d="M730.55,830.03c-27.62,0-54.01,0-81.49,0c0-9.58,0-18.98,0-29.29c-12.65,5.51-24.02,10.57-35.48,15.4
	c-5.16,2.17-10.5,3.9-15.76,5.82c-0.75,0.28-1.76,0.33-2.22,0.86c-9.56,11.04-23.42,6.91-35.21,9.63
	c-56.31,12.98-112.75,12.68-169.06-0.58c-3.35-0.79-6.83-1.07-10.25-1.57c-6.12-0.9-13.95,3.27-17.34-5.92
	c-0.23-0.63-1.93-0.69-2.92-1.09c-16.99-7.05-33.97-14.12-50.96-21.16c-0.91-0.38-1.9-0.55-3.77-1.09c0,9.85,0,19.05,0,28.73
	c-27.37,0-53.94,0-81.7,0c0-2.87,0-5.7,0-8.52c-0.01-24.04,0.18-48.08-0.22-72.11c-0.06-3.73-1.89-8.37-4.5-10.97
	c-77.01-76.43-115.25-168.88-113.36-277.26c3.02-173.09,131.28-323.65,301.53-355.1c202.53-37.41,395.05,91.61,433.72,294.03
	c24.74,129.5-12.2,242.35-104.85,336.46c-4.55,4.62-6.36,8.99-6.27,15.31c0.32,23.23,0.12,46.47,0.11,69.7
	C730.55,823.94,730.55,826.57,730.55,830.03z M730.66,709.64c123.98-128.5,134-348.01-9.69-488.04
	C575.57,79.92,343.41,90.57,213.14,243.44c-128.76,151.11-97.8,357.26,11.24,465.57c0-13.91,0.31-26.85-0.14-39.77
	c-0.2-5.84,1.46-8.97,6.98-11.54c22-10.27,43.71-21.13,65.54-31.76c2.79-1.36,5.61-2.63,9.24-4.33c0,4.05,0,6.95,0,9.86
	c0,45.13,0.09,90.26-0.12,135.39c-0.03,5.55,1.51,8.89,6.68,11.12c15.41,6.67,30.66,13.69,46.03,20.47c2,0.88,4.27,1.14,7.58,1.97
	c0-59.1,0-117.05,0-176.21c10.4,7.73,19.5,14.68,28.81,21.36c14.19,10.17,31.01,9.2,44.16-2.3c2.33-2.03,4.66-4.06,8.35-7.28
	c0,4.52,0,7.35,0,10.18c0,54.47,0.14,108.95-0.16,163.42c-0.04,7.09,2.1,9.44,8.99,9.28c13.34-0.3,26.7,0.14,40.04-0.06
	c11.07-0.16,11.08-0.38,11.08-11.77c0.01-72.9-0.03-145.8,0.12-218.7c0.01-3.47,0.42-8.11,2.58-10.21
	c13.56-13.2,27.67-25.83,41.97-38.98c10.39,6.62,20.33,13.33,30.66,19.36c5.03,2.94,6.59,6.38,6.57,12.14
	c-0.21,73.43-0.14,146.87-0.13,220.3c0,2.89,0,5.77,0,9.77c3.43-1.08,5.97-1.63,8.31-2.66c14.63-6.46,29.15-13.17,43.85-19.49
	c5.99-2.57,7.75-6.46,7.73-12.94c-0.25-62.48-0.03-124.97-0.34-187.46c-0.03-6.89,1.63-10.37,8.32-12.85
	c15-5.56,29.49-12.48,44.46-18.11c12.4-4.66,22.93-11.01,29.13-23.69C730.66,585.01,730.66,646.48,730.66,709.64z"/>
<path d="M588.9,480.14c-14.45-6.39-25.11-19.5-42.05-18.86c-17.2,0.65-26.04,14.29-38.97,24.47c-0.18-3.42-0.41-5.86-0.42-8.3
	c-0.02-76.37-0.03-152.74,0.01-229.11c0.01-18.58,10.12-28.65,28.7-28.78c8.81-0.06,17.63-0.18,26.43,0.03
	c15.5,0.38,26.48,10.92,26.51,26.25c0.15,76.9,0.06,153.81,0.05,230.71C589.17,477.54,589.02,478.51,588.9,480.14z"/>
<path d="M730.55,499c-5.01-5.42-9.14-11.46-14.7-15.57c-9.9-7.32-21.17-8.02-32.65-3.29c-11.02,4.54-22.06,9.03-33.88,13.87
	c-0.16-3.55-0.37-6.11-0.37-8.66c-0.02-53.08-0.03-106.16-0.02-159.24c0.01-18.73,9.2-27.85,28.07-27.9
	c9.87-0.03,19.75-0.23,29.61,0.1c13.78,0.45,23.83,10.36,23.87,23.95C730.63,381.19,730.55,440.13,730.55,499z"/>
<path d="M413.29,573.32c-15.13-11.25-29.59-21.78-43.72-32.74c-2.07-1.61-3.66-5.21-3.67-7.89c-0.22-44.6-0.24-89.2-0.11-133.8
	c0.04-14.48,9.05-23.51,23.48-23.81c11.75-0.24,23.5-0.25,35.25,0.02c14.08,0.32,22.88,9.23,22.92,23.37
	c0.12,45.94,0.09,91.87-0.06,137.81c-0.01,2.66-0.79,6.12-2.56,7.83C434.7,553.93,424.16,563.34,413.29,573.32z"/>
<path d="M414.87,603.32c22.83-21.04,45.19-41.63,67.54-62.22c18.46-17.01,36.89-34.04,55.37-51.02c7.64-7.02,10.9-7.32,19.79-1.7
	c19.85,12.56,39.73,25.06,59.39,37.91c4.27,2.79,7.63,3.31,12.43,1.24c19.84-8.54,39.88-16.62,59.87-24.82
	c8.68-3.56,14.89-1.96,17.76,4.46c3.04,6.79-0.21,12.72-9.22,16.46c-22.67,9.4-45.43,18.58-68,28.22
	c-6.32,2.7-11.46,2.31-17.22-1.46c-18.76-12.28-37.9-23.97-56.59-36.34c-4.94-3.27-7.83-2.94-12.12,1.05
	c-38.51,35.83-77.24,71.42-115.92,107.07c-10.23,9.43-12.97,9.53-24.02,1.29c-18.41-13.72-36.92-27.29-55.19-41.2
	c-4.29-3.27-7.52-3.97-12.73-1.38c-40.87,20.27-81.92,40.17-123,60c-3.46,1.67-7.95,3.55-11.22,2.64c-3.46-0.96-7.9-4.79-8.47-7.99
	c-0.65-3.59,1.75-8.52,4.3-11.67c2.14-2.65,6.38-3.64,9.74-5.28c42.43-20.73,84.92-41.31,127.23-62.28
	c7.45-3.69,13.23-3.27,19.81,1.79C374.09,573.2,394.12,587.86,414.87,603.32z"/>
<path d="M224.45,583.2c0-34.53-0.22-68.91,0.14-103.29c0.11-10.07,8.52-17.78,18.98-18.09c14.39-0.42,28.82-0.47,43.21-0.01
	c11.17,0.36,18.99,8.55,19.14,19.64c0.25,19.47,0.18,38.95-0.06,58.42c-0.03,2.15-1.51,5.39-3.25,6.26
	c-25.04,12.5-50.23,24.68-75.4,36.9C226.56,583.33,225.68,583.14,224.45,583.2z"/>
</svg>
