<?xml version="1.0" encoding="utf-8"?>
<!-- Generator: Adobe Illustrator 24.0.1, SVG Export Plug-In . SVG Version: 6.00 Build 0)  -->
<svg version="1.1" id="Layer_1" xmlns="http://www.w3.org/2000/svg" xmlns:xlink="http://www.w3.org/1999/xlink" x="0px" y="0px"
	 viewBox="0 0 1000 1000" style="enable-background:new 0 0 1000 1000;" xml:space="preserve">
<path d="M183.52,959c-0.07-87.08-0.51-174.15-0.03-261.23c0.2-36.05,27.5-68.66,63.47-78.82c64.68-18.26,127.12-14.16,187.43,17.12
	c18.18,9.43,37.14,17.87,56.59,24.18c14.77,4.79,30.8,6.98,46.38,7.69c26.49,1.21,53.08,0.23,79.62,0.37
	c20.31,0.11,30.58,10.92,30.17,31.31c-0.78,38.4-21.23,65.43-55.22,72.37c-6.07,1.24-12.45,1.25-18.69,1.26
	c-51,0.09-102.01-0.24-153,0.38c-7.48,0.09-15.93,2.98-22.11,7.22c-9.17,6.3-11.16,16.77-7.81,27.31
	c3.47,10.89,11.42,17.4,22.91,18.47c7.4,0.68,14.9,0.36,22.35,0.36c45.34,0.02,90.68-0.36,136.01,0.16
	c23.53,0.27,42.74-7.75,59.2-24.42c36.88-37.35,73.84-74.63,111.41-111.29c48.76-47.57,127.19-48.11,176.75-1.94
	c15.21,14.17,15.68,29.6,1.08,44.22c-63.02,63.09-126.12,126.1-189.16,189.17c-18.7,18.71-40.84,30.62-67.11,34.6
	c-1.41,0.21-2.73,0.98-4.1,1.5C500.95,959,342.23,959,183.52,959z"/>
<path d="M61.8,959c-15.4-6.51-20.58-18.14-20.43-34.69c0.61-65.53,0.24-131.07,0.26-196.6c0.01-22.99,9.64-32.74,32.42-32.8
	c18.12-0.05,36.24-0.01,55.77-0.01c0,88.63,0,176.37,0,264.1C107.14,959,84.47,959,61.8,959z"/>
<path d="M838.04,323.54c0.38,154.53-125.02,280.99-278.81,281.16c-153.69,0.17-278.92-125.85-279.05-280.82
	C280.05,169.08,405.28,42.72,558.9,42.66C712.59,42.6,837.67,168.46,838.04,323.54z M528.8,472.57c0-0.69-0.03,1.08,0,2.85
	c0.36,17.82,10.8,29.51,26.46,29.65c16.03,0.14,27.35-11.93,27-30.03c-0.13-6.9,2.42-9.55,8.5-11.98
	c43.58-17.43,67.91-66.71,54.59-110.48c-8.75-28.77-29.04-45.98-56.58-56.47c-18.03-6.86-35.61-15.03-52.87-23.66
	c-4.35-2.17-8.43-7.92-9.63-12.77c-2.92-11.84,5.62-25.29,17.34-28.81c15.06-4.53,29.29-2.71,42.71,6.1
	c13.85,9.1,30.33,5.91,38.55-6.82c8.32-12.89,4.64-29.04-9.48-37.94c-7.49-4.72-15.61-8.83-23.98-11.66
	c-6.62-2.23-9.16-4.78-9.3-12.21c-0.28-15.47-12.46-26.23-27.37-25.88c-14.49,0.34-26.04,11.48-25.68,26.48
	c0.19,8.03-2.95,10.85-9.79,13.96c-29.61,13.5-44.9,37.74-46.93,69.58c-1.87,29.34,10.8,51.88,36.52,66.67
	c5.93,3.41,11.79,7.09,18.06,9.76c16.15,6.88,32.57,13.1,48.76,19.89c13.93,5.84,20.49,16.59,19.45,30.9
	c-1.23,16.96-13.76,32.14-30.52,35.36c-20.3,3.9-39.48,1.11-57.26-10.68c-13.82-9.16-30.24-5.29-38.26,7.72
	c-8.08,13.11-4.34,29.55,10.36,37.58C494.71,458,510.98,464.41,528.8,472.57z"/>
</svg>
