<?xml version="1.0" encoding="utf-8"?>
<!-- Generator: Adobe Illustrator 24.0.1, SVG Export Plug-In . SVG Version: 6.00 Build 0)  -->
<svg version="1.1" id="Layer_1" xmlns="http://www.w3.org/2000/svg" xmlns:xlink="http://www.w3.org/1999/xlink" x="0px" y="0px"
	 viewBox="0 0 1000 1000" style="enable-background:new 0 0 1000 1000;" xml:space="preserve">
<g>
	<path d="M124.1,160.71c2.02-11.61,2.28-23.49,6.22-33.98c17.69-47.04,66.88-62.92,109.24-35.86
		c19.15,12.23,33.48,29.04,44.56,48.75c2.33,4.14,4.45,8.57,7.55,12.07c7.96,8.97,13.94,8.24,20.21-1.87
		C387.71,27.75,542.78,4.93,649.64,100.95c14.83,13.33,26.37,30.58,38.2,46.9c9.37,12.92,16.49,13.29,25.34-0.82
		c6.11-9.74,11.65-19.93,18.64-29c13.62-17.64,30.6-31.21,52.45-37.42c42.78-12.15,86.07,16.31,90.89,63.17
		c2.47,23.99-1.82,48.93-5.16,73.15c-1.91,13.85-9.15,15.83-19.98,7c-10.12-8.25-19.19-17.8-28.6-26.9
		c-20.69-20.02-48.49-25.34-74.77-14.17c-33.63,14.29-33.63,14.29-28.85,50.03c17.38,130.12-81.91,246.42-213.24,249.8
		c-110.29,2.83-209.85-83.44-220.82-193.28c-2.45-24.51,0.7-49.75,2.96-74.5c0.95-10.45-1.26-16.21-10.57-20.83
		c-15.97-7.93-30.92-17.54-50.08-16.76c-18.02,0.73-33.13,6.57-46.08,19.05c-9.98,9.62-20.05,19.28-30.97,27.78
		c-9.03,7.03-13.59,5.29-15.73-5.79C129.62,199.32,127.12,180.05,124.1,160.71z M561.14,236.46c-0.91,0.4-1.81,0.8-2.72,1.2
		c1.16,9.36,2.8,18.69,3.29,28.08c0.27,5.14-1.41,10.38-2.22,15.58c-5.24-1.16-10.64-1.85-15.67-3.62
		c-3.66-1.29-7.1-3.66-10.14-6.16c-19.62-16.08-39.37-32.01-58.53-48.63c-10.86-9.42-10.99-9.87-19.69,2.03
		c-25.08,34.28-56.19,61.43-94.79,79.54c-29.41,13.8-30.32,14.12-13.87,42.75c35.06,61.02,88.61,93.37,158.8,91.01
		c74.16-2.49,126.84-40.51,157.57-108.44c4.29-9.49,2.78-15.13-7.29-19.57c-35.5-15.66-65.23-39.07-89.81-69.07
		C564.64,239.42,562.8,238.02,561.14,236.46z"/>
	<path d="M223.67,613.9c92.29,4.54,179.4,28.04,260.67,72.17c9.62,5.22,16.87,4.93,26.33-0.18c83.92-45.3,173.58-69.68,269.04-71.98
		c21.19-0.51,25.49,4.3,25.61,25.99c0.11,20.22-5.92,26.39-26,26.48c-5.56,0.03-11.12-0.24-16.68-0.16
		c-32.01,0.44-48.85,21.01-44.97,53.07c2.42,19.99,3.69,40.2,4.01,60.33c0.48,30.52,17.34,48.29,47.8,48.61
		c7.94,0.08,15.93-0.33,23.81,0.42c3.53,0.34,9.71,2.86,9.79,4.6c0.52,12.05,1.67,24.64-1.21,36.1c-2.47,9.82-13.71,9.05-22.5,9.17
		c-68.52,0.96-135.52,10.72-198.82,37.99c-23.56,10.15-45.82,23.58-67.95,36.73c-10.5,6.24-19.12,7.76-29.49,0.54
		c-65.46-45.6-139.64-65.4-217.89-72.61c-18.16-1.67-36.46-1.83-54.7-2.75c-15.2-0.77-19.75-5.38-20.28-20.36
		c-1.08-29.98-1.08-29.98,28.5-29.87c38.98,0.15,55.65-18.04,54.12-56.58c-0.65-16.43,0.74-33.22,3.55-49.44
		c5.76-33.26-11.61-55.62-45.16-55.99c-2.78-0.03-5.56,0-8.34,0.04c-29.76,0.41-34.77-4.93-32.6-34.74
		c0.9-12.32,5.43-16.88,17.89-17.56C213.33,613.67,218.51,613.9,223.67,613.9z"/>
	<path d="M405.03,514.08c3.31,1.19,7.43,2.5,11.42,4.13c54.46,22.22,108.84,22.24,163.42,0.13c5.81-2.35,13.67-4.09,19.15-2.13
		c40.34,14.47,75.67,36.5,101.33,71.87c7.75,10.69,7.04,12.86-5.81,15.15c-65.73,11.7-128.41,32.26-187.77,63.07
		c-4.97,2.58-13.57,2.58-18.55,0.02c-58-29.84-119.02-50.42-183.15-62.03c-17.04-3.09-17.92-5.11-7.13-18.88
		c25.97-33.15,59.88-55.12,99.15-69.32C399.32,515.27,401.7,514.9,405.03,514.08z"/>
	<path d="M794.72,809.47c-9.12,0-18.26,0.3-27.36-0.06c-19.13-0.77-29.2-13.55-27.17-32.58c0.77-7.17-0.77-14.59-1.29-21.9
		c-0.28-3.93-0.72-7.85-0.93-11.78c-0.46-8.49,0.05-17.14-1.37-25.46c-3.67-21.38,7.92-35.79,29.38-33.84
		c15.7,1.43,30.1,1.14,44.94-6.41c5.79-2.95,17.53,0.35,23.83,4.72c33.52,23.26,39.29,88.33,10.5,117.48
		c-5.28,5.35-14.28,8.26-22.03,9.63c-9.23,1.63-18.97,0.38-28.48,0.38C794.72,809.59,794.72,809.53,794.72,809.47z"/>
	<path d="M200.61,809.83c-6.75,0-13.54-0.44-20.25,0.08c-19.85,1.54-32.05-8.27-40.21-25.39c-14.74-30.93-8.92-71.55,14.32-96.9
		c11.89-12.97,22.14-13.96,38.23-7.65c9.14,3.58,20,4.82,29.87,4.12c30.92-2.18,42.42,10.67,34.62,40.42
		c-0.7,2.65-1.25,5.43-1.27,8.16c-0.09,16.82,0.25,33.65-0.06,50.46c-0.28,15.02-10.29,25.31-25.47,26.15
		c-9.9,0.55-19.85,0.1-29.78,0.1C200.61,809.53,200.61,809.68,200.61,809.83z"/>
</g>
</svg>
