<?xml version="1.0" encoding="utf-8"?>
<!-- Generator: Adobe Illustrator 24.0.1, SVG Export Plug-In . SVG Version: 6.00 Build 0)  -->
<svg version="1.1" id="Layer_1" xmlns="http://www.w3.org/2000/svg" xmlns:xlink="http://www.w3.org/1999/xlink" x="0px" y="0px"
	 viewBox="0 0 1000 1000" style="enable-background:new 0 0 1000 1000;" xml:space="preserve">
<g>
	<path d="M569.62,789.49c5.71-6.11,11.23-11.96,16.69-17.85c17.15-18.52,16.9-39.73-1.03-57.6c-11.16-11.12-24.24-19.55-38.75-25.69
		c-2.78-1.18-4.15-2.66-4.86-5.75c-4.12-17.7-18.84-29.36-36.91-29.53c-9.18-0.08-18.35-0.09-27.53,0
		c-18.77,0.19-33.08,12.6-36.53,31.1c-0.4,2.14-2.66,4.62-4.71,5.66c-27.32,13.88-44.88,35.17-49.44,65.87
		c-2.96,19.93,0.07,39.13,10.14,56.91c0.81,1.43,1.59,2.88,2.35,4.34c0.07,0.13-0.05,0.35-0.2,1.19
		c-8.21-0.68-16.51-1.29-24.78-2.07c-40.58-3.84-80.88-9.42-120.13-20.88c-17.82-5.2-35.18-11.59-50.97-21.6
		c-27.24-17.26-36.66-42.55-27.47-73.51c7.29-24.54,16.97-47.99,30.66-69.75c22.03-35.02,53.17-55.51,94.5-59.79
		c17.33-1.79,34.81-2.31,52.05-4.63c9.16-1.23,14.7-0.11,20.27,8.51c7.96,12.32,21.57,18.46,35.04,23.64
		c31.37,12.08,64.07,15.23,97.36,13.74c24.13-1.08,47.8-4.86,70.39-13.83c13.76-5.47,27.45-11.88,35.68-24.6
		c4.79-7.39,9.22-8.7,17.42-7.61c19.43,2.58,39.09,3.37,58.57,5.62c43.12,4.97,72.8,29.5,94.01,65.88
		c13.2,22.64,23.64,46.61,28.55,72.32c4.53,23.72-2.41,44.32-22.61,59.23c-18.47,13.64-39.67,21.21-61.44,27.38
		c-38.08,10.8-77.16,15.77-116.4,20.11c-9.72,1.07-16.69,0.07-21.48-9.27c-1.85-3.6-5.48-6.37-8.54-9.26
		C576.59,795.01,573.35,792.58,569.62,789.49z"/>
	<path d="M281.02,162.14c-0.09,5.42,0.22,8.9,5.36,11.46c7.43,3.7,7.92,14.62,1.07,19.43c-3.79,2.66-3.89,5.39-3.61,9.18
		c2.96,40.43,5.68,80.89,8.76,121.31c1.25,16.44-5.73,30.77-10.56,45.69c-0.34,1.04-0.93,2-1.9,4.05c-1.93-3.06-2.99-4.27-3.55-5.68
		c-7.29-18.62-11.33-37.37-9.21-57.91c3.79-36.66,5.63-73.52,8.1-110.31c0.11-1.68-1.18-4.04-2.57-5.13
		c-8.28-6.44-7.65-17.24,1.94-21.84c4.55-2.18,3-5.86,3.41-8.9c0.16-1.19-2.2-3.2-3.83-4.05c-4.38-2.28-9.39-3.56-13.37-6.35
		c-3.16-2.22-7.12-6.06-7.15-9.22c-0.03-3.14,3.79-7.34,7-9.27c6.08-3.65,12.92-6.05,19.47-8.89
		c61.04-26.44,122.05-52.96,183.17-79.22c17.68-7.6,35.84-7.61,53.51-0.01c66.16,28.45,132.22,57.14,198.28,85.82
		c3.15,1.37,6.3,3.11,8.87,5.35c4.35,3.8,4.36,8.6-0.04,12.32c-2.74,2.32-6.09,4.06-9.41,5.52c-20.64,9.07-41.3,18.08-62.06,26.85
		c-3.72,1.57-5.31,3.36-5.24,7.59c0.25,16.51-0.44,33.05,0.32,49.53c0.41,8.87,3.78,17.58,4.51,26.46
		c1.35,16.23,1.81,32.54,2.44,48.82c0.12,3.03,1.12,4.95,2.87,7.51c3.5,5.13,6.72,11.17,7.65,17.2
		c3.61,23.54-0.48,46.12-11.96,66.98c-2.87,5.22-8.27,9.03-12.33,13.64c-1.5,1.7-2.87,3.7-3.7,5.8
		c-13.92,34.99-32.94,66.73-59.91,93.29c-19.14,18.85-40.92,33.43-67.66,39.09c-31.46,6.66-59.59-2.02-85.31-19.89
		c-29.12-20.23-50.24-47.53-66.95-78.36c-6.01-11.09-10.68-22.91-16.21-34.27c-1.08-2.22-3.26-3.94-5.05-5.78
		c-3.65-3.77-8.36-6.9-10.91-11.3c-13.03-22.38-17.07-46.63-12.82-72.11c1.12-6.7,3.43-13.18,10.28-16.73
		c0.93-0.48,1.52-2.26,1.68-3.52c2.74-20.33,5.51-40.66,7.99-61.03c0.7-5.79,0.65-11.7,0.68-17.55c0.08-16.15,0.1-32.3-0.07-48.44
		c-0.02-1.84-0.89-4.76-2.19-5.34C314.49,176.55,298.01,169.51,281.02,162.14z M613.57,408.31c6.51,2.95,10.56-0.27,13.44-4.8
		c10.49-16.54,13.98-34.56,9.7-53.72c-1.88-8.41-5.58-10.13-13.94-7.96c-0.77-2.62-1.51-5.26-2.32-7.88
		c-5.31-17.26-11.67-34.02-23.26-48.24c-5.22-6.41-10.92-7.72-18.51-4.44c-20.35,8.81-40.65,17.74-61.07,26.4
		c-18.12,7.68-36.43,7.66-54.54,0.01c-19.75-8.34-39.4-16.95-59-25.63c-3.52-1.56-6.48-1.49-9.88,0.13
		c-16.22,7.73-26.21,20.92-32.37,37.23c-2.75,7.28-4.48,14.94-6.68,22.43c-7.62-2.45-12.49,0.79-13.12,9.21
		c-0.54,7.13-1.17,14.31-0.88,21.44c0.45,11.39,3.92,21.99,10.68,31.29c3.18,4.37,7.14,7.44,12.87,4.81
		c4.24,10.05,7.94,20.02,12.55,29.55c14.61,30.15,33.68,56.84,61.97,75.77c32.45,21.72,67.54,21.62,100.08,0.17
		c15.19-10.02,27.74-22.79,38.69-37.22C593.64,456.22,605.13,433.38,613.57,408.31z"/>
	<path d="M470.89,931.17c-24.12-6.07-44.03-17.79-60.17-35.83c-5.24-5.86-5.29-7.67,0.46-13.19c7.15-6.86,14.32-13.7,21.5-20.52
		c6.61-6.28,7.93-6.07,15.3-0.4c7.67,5.91,15.38,11.89,23.7,16.78c9.49,5.57,20.13,6.62,30.91,4.07
		c5.91-1.39,10.94-4.18,13.64-10.07c3.74-8.18,2.67-14.86-4.71-19.87c-5.83-3.96-12.52-6.74-18.99-9.66
		c-14.17-6.39-28.92-11.67-42.57-19.02c-15.61-8.4-27.41-20.98-31.91-38.87c-8.36-33.24,9.12-61.91,43.69-71.96
		c2.81-0.82,5.65-1.51,9.14-2.43c0-5.95-0.04-11.94,0.01-17.92c0.05-6.8,1.75-8.58,8.35-8.63c7.89-0.06,15.78-0.08,23.67,0.01
		c6.95,0.07,8.88,2.06,9.01,8.82c0.11,5.48-1.62,12.27,0.98,16.06c2.34,3.41,9.5,3.45,14.48,5.12
		c13.77,4.62,25.95,11.97,36.38,22.06c5.99,5.8,5.93,8.89,0.36,14.92c-6.85,7.41-13.76,14.76-20.71,22.08
		c-4.8,5.06-7.09,4.93-12.72,0.9c-6.97-4.99-13.92-10.17-21.5-14.08c-8.5-4.38-17.79-3.89-26.79-0.78
		c-4.94,1.71-8.66,4.8-9.57,10.34c-0.96,5.88,1.03,10.85,6.1,13.66c6.21,3.44,12.79,6.3,19.41,8.88
		c11.09,4.32,22.37,8.16,33.52,12.34c3.25,1.22,6.34,2.87,9.49,4.36c50.39,23.8,42.43,85.58,6.1,108.7
		c-9.26,5.89-20.12,9.44-30.55,13.23c-3.85,1.39-5.32,2.65-5.06,6.65c0.33,4.93,0,9.91,0.09,14.86c0.08,4.52-2.11,7.03-6.52,7.1
		c-9.36,0.16-18.72,0.16-28.07,0.03c-4.49-0.06-6.52-2.69-6.47-7.14C470.94,945.01,470.89,938.24,470.89,931.17z"/>
</g>
</svg>
