<?xml version="1.0" encoding="utf-8"?>
<!-- Generator: Adobe Illustrator 24.0.1, SVG Export Plug-In . SVG Version: 6.00 Build 0)  -->
<svg version="1.1" id="Layer_1" xmlns="http://www.w3.org/2000/svg" xmlns:xlink="http://www.w3.org/1999/xlink" x="0px" y="0px"
	 viewBox="0 0 1000 1000" style="enable-background:new 0 0 1000 1000;" xml:space="preserve">
<style type="text/css">
	.st0{fill:none;}
</style>
<g>
	<path d="M644.96,403.03c-0.3-23.78,13.04-38.68,34.57-38.6c20.74,0.07,34.2,14.64,34.52,37.34c0.33,23.38-13.43,38.64-34.81,38.59
		C658.27,440.31,645.24,426.13,644.96,403.03z M696.9,402.44c0-13.87-7-22.97-17.91-22.2c-14.11,1-17.35,11.15-17.21,22.89
		c0.14,11.27,3.95,20.56,17.13,21.45C689.82,425.31,696.9,416.25,696.9,402.44z"/>
	<path d="M729.56,480.95c-0.23-23.88,12.97-38.69,34.46-38.64c20.78,0.04,34.16,14.56,34.42,37.34
		c0.27,23.55-13.33,38.71-34.67,38.65C742.82,518.23,729.78,504,729.56,480.95z M781.57,480.59c0.2-13.56-6.95-22.93-17.8-22.52
		c-13.4,0.51-16.94,10.06-17.66,21.11c-0.88,13.5,6.26,22.85,16.99,23.28C774.2,502.9,781.36,494.42,781.57,480.59z"/>
	<path d="M674.72,516.77c0-5.13-1.88-11.33,0.33-15.22c9.41-16.62,20.04-32.56,30.2-48.75c16.2-25.83,32.1-51.85,48.86-77.32
		c2.69-4.09,9.16-5.7,13.89-8.46c-0.16,5.39,1.67,11.99-0.77,15.99c-25.53,41.93-51.7,83.47-77.87,125.01
		c-2.32,3.68-5.9,6.55-8.9,9.8C678.54,517.47,676.63,517.12,674.72,516.77z"/>
	<path class="st0" d="M576.06,544.78c-11.47,1.18-17.7,8.09-17.31,19.54c0.4,11.73,7.92,17,19.02,18.13
		c11.13-1.72,17.97-7.72,18.39-19.16C596.56,552.57,586.85,543.67,576.06,544.78z"/>
	<path class="st0" d="M655.99,569.92c-14.17,120.92-125.37,178.32-216.56,153.72c-93.68-25.27-148.66-119.81-123.01-212.19
		c12.62-45.45,39.46-80.7,80.6-103.8c60.68-34.07,121.43-30,178.34,3.05c12.46-24.68,24.19-47.9,36.36-72.01
		c-22.65-33.35-35.27-39.57-64.89-32.3c4.03,14.13,8.96,28.15,11.51,42.59c0.64,3.64-6.3,8.62-9.76,12.99
		c-3.73-3.54-9.72-6.48-10.85-10.71c-11.13-41.68-17.09-46.66-59.23-46.69c-30.32-0.02-44.41,12.61-50.26,42.8
		c-1.04,5.37-7.82,9.64-11.95,14.42c-3.1-5.63-9.49-11.82-8.65-16.78c2.27-13.35,7.64-26.17,12.2-40.53
		c-14.18,3.77-30.16-7.16-44.06,7.74c-81.97,87.87-121.25,192.5-120.5,311.66c0.51,80.05,68.8,146.26,148.98,147.44
		c51.77,0.76,103.59,1.36,155.33-0.06c60.32-1.66,105.59-30.07,134.08-83.31c17.65-32.99,20.81-68.33,14.32-103.05
		C689.57,579.59,673.23,574.88,655.99,569.92z"/>
	<path class="st0" d="M420.14,223.75c31.54,0.81,63.12,0.36,94.68,0.43c42.13,0.1,42.14,0.14,57.94-39.66
		c6.31-15.9,12.59-31.8,18.89-47.7c-0.84-1.25-1.67-2.5-2.51-3.76c-27.18,17.5-54.23,16.04-81.24,2.41
		c-1.83-0.93-3.96-1.27-5.79-2.2c-12.76-6.52-25.39-6.46-38.36-0.25c-27.51,13.18-55.38,19.28-84,2.86
		c-1.11-0.63-2.89-0.08-6.32-0.08c10.92,27.53,20.73,53.64,31.92,79.14C407.27,219.33,414.99,223.62,420.14,223.75z"/>
	<path class="st0" d="M373.61,544.78c-11.61,0.95-17.92,8.07-17.7,19.27c0.23,11.44,7.56,17.29,17.42,18.24
		c11.5-0.18,20.15-8.76,20.22-18.68C393.63,552.87,384.42,543.89,373.61,544.78z"/>
	<path class="st0" d="M721.7,315.58c-68.07-0.05-123.36,55.13-123.41,123.14c-0.04,68.08,55.01,123.06,123.28,123.11
		c68.12,0.05,123.51-55.1,123.51-122.98C845.08,371.05,789.6,315.63,721.7,315.58z"/>
	<path d="M806.87,322.18c-58.14-41.78-118.01-36.96-176.72,2.89c-9.67-11.06-19.08-21.83-28.25-32.31
		c17.87-32.34,12.78-49.04-20.83-69.62c10.56-26.76,21.11-53.66,31.81-80.5c3.67-9.22,8.34-18.37-0.1-27.39
		c-8.9-9.52-19.21-6.44-28.62-1.73c-24.77,12.39-49.08,12.74-73.69-0.21c-18.06-9.5-36.45-10.5-54.7-0.37
		c-25.6,14.23-50.68,11.62-76.74,0.21c-7-3.06-20.17-2.27-24.82,2.4c-4.58,4.6-4.61,17.29-1.99,24.81
		c9.8,28.12,21.5,55.59,32.41,83.11c-33.26,18.77-38.38,35.96-21.21,69.83c-2.54,2.82-5.25,5.88-8,8.9
		c-81.83,89.73-121.13,196.12-122.15,316.61c-0.8,93.97,75.31,172.05,168.94,174.21c53.32,1.23,106.72,1.21,160.05,0.04
		c86.68-1.91,158.29-67.2,168.37-153.13c2.14-18.2,0.31-36.87,0.31-55.6c70.19-10.57,117.34-47.17,132.35-116.25
		C876.23,408.53,856.3,357.71,806.87,322.18z M373.43,135.81c3.43,0,5.22-0.55,6.32,0.08c28.62,16.42,56.49,10.33,84-2.86
		c12.97-6.22,25.59-6.28,38.36,0.25c1.83,0.93,3.96,1.28,5.79,2.2c27.01,13.63,54.07,15.09,81.24-2.41c0.84,1.25,1.67,2.5,2.51,3.76
		c-6.3,15.9-12.58,31.81-18.89,47.7c-15.8,39.8-15.81,39.76-57.94,39.66c-31.56-0.07-63.14,0.38-94.68-0.43
		c-5.15-0.13-12.88-4.42-14.8-8.81C394.16,189.45,384.35,163.34,373.43,135.81z M693.66,687.94
		c-28.49,53.24-73.76,81.65-134.08,83.31c-51.74,1.43-103.56,0.83-155.33,0.06c-80.18-1.18-148.47-67.38-148.98-147.44
		c-0.76-119.16,38.52-223.79,120.5-311.66c13.9-14.9,29.89-3.96,44.06-7.74c-4.56,14.36-9.93,27.19-12.2,40.53
		c-0.85,4.96,5.55,11.15,8.65,16.78c4.13-4.78,10.91-9.04,11.95-14.42c5.85-30.2,19.94-42.82,50.26-42.8
		c42.14,0.03,48.09,5,59.23,46.69c1.13,4.23,7.12,7.17,10.85,10.71c3.46-4.37,10.4-9.35,9.76-12.99
		c-2.55-14.44-7.48-28.46-11.51-42.59c29.62-7.28,42.25-1.06,64.89,32.3c-12.17,24.11-23.9,47.32-36.36,72.01
		c-56.91-33.05-117.66-37.12-178.34-3.05c-41.14,23.1-67.98,58.35-80.6,103.8c-25.65,92.38,29.33,186.92,123.01,212.19
		c91.19,24.6,202.39-32.8,216.56-153.72c17.24,4.97,33.57,9.67,51.99,14.98C714.47,619.62,711.31,654.96,693.66,687.94z
		 M596.16,563.3c-0.43,11.44-7.27,17.44-18.39,19.16c-11.09-1.13-18.62-6.41-19.02-18.13c-0.39-11.46,5.84-18.37,17.31-19.54
		C586.85,543.67,596.56,552.57,596.16,563.3z M485.05,630c-3.29,0-6.37,0-9.46,0c-2.59,0-5.18-0.07-7.76,0.03
		c-1.45,0.05-1.92-0.44-1.9-1.89c0.07-5.01,0.03-10.01,0.03-15.31c-23.21-2.83-38.74-14.73-45.2-37.86
		c11.68-2.17,23.11-4.29,34.68-6.44c0.27,0.72,0.51,1.32,0.74,1.92c3.13,8.19,9.35,12.4,17.85,13.05c4.06,0.31,8.27-0.05,12.29-0.8
		c3.96-0.73,5.65-3.02,5.89-6.23c0.25-3.31-1.33-6.36-4.92-7.61c-4.99-1.74-10.17-2.99-15.32-4.24c-9.2-2.23-18.26-4.76-26.84-8.89
		c-13.45-6.49-19.34-21.26-18.1-33.76c1.9-19.28,13.76-32.18,33.36-36.58c1.78-0.4,4.31-0.28,5.14-1.4c0.94-1.26,0.4-3.66,0.42-5.56
		c0.04-3.1,0.01-6.2,0-9.3c0-0.9-0.1-1.8,1.28-1.79c5.82,0.03,11.65,0.01,17.77,0.01c0,5.62,0,11.04,0,16.55
		c19.83,2.36,34.77,11.06,42.03,30.52c-7.31,2.29-14.48,4.54-21.65,6.79c-2.6,0.82-5.22,1.6-7.81,2.46
		c-1.05,0.35-1.72,0.38-2.25-0.86c-3.96-9.18-12.44-11.96-21.78-11.1c-1.81,0.17-3.66,0.64-5.34,1.33c-2.7,1.12-4.07,3.33-4.09,6.27
		c-0.02,2.95,1.27,5.34,4.04,6.25c4.75,1.57,9.63,2.74,14.46,4.06c8.04,2.21,16.21,4.01,24.08,6.7
		c15.58,5.31,24.71,20.09,23.71,36.54c-1.14,18.76-14.08,31.54-30.67,36.8c-4.06,1.29-8.31,1.99-12.51,2.78
		c-1.57,0.3-2.27,0.73-2.23,2.48C485.13,619.85,485.05,624.78,485.05,630z M393.55,563.61c-0.07,9.92-8.72,18.5-20.22,18.68
		c-9.86-0.95-17.19-6.8-17.42-18.24c-0.22-11.2,6.09-18.32,17.7-19.27C384.42,543.89,393.63,552.87,393.55,563.61z M721.57,561.82
		c-68.26-0.05-123.32-55.03-123.28-123.11c0.04-68.01,55.34-123.18,123.41-123.14c67.91,0.05,123.38,55.47,123.38,123.26
		C845.07,506.72,789.69,561.87,721.57,561.82z"/>
</g>
</svg>
