<?xml version="1.0" encoding="utf-8"?>
<!-- Generator: Adobe Illustrator 24.0.1, SVG Export Plug-In . SVG Version: 6.00 Build 0)  -->
<svg version="1.1" id="Layer_1" xmlns="http://www.w3.org/2000/svg" xmlns:xlink="http://www.w3.org/1999/xlink" x="0px" y="0px"
	 viewBox="0 0 1000 1000" style="enable-background:new 0 0 1000 1000;" xml:space="preserve">
<g>
	<path d="M266.72,675.78c-38.46-28.56-78.13-58.02-120.84-89.74c38.67-34.23,74.92-67.6,112.55-99.36
		c79.34-66.96,159.83-132.56,238.87-199.86c22.61-19.26,43.41-21.02,68.58-6.8c30.7,17.35,62.38,32.94,94.91,49.95
		C528.5,446.06,398.83,559.84,266.72,675.78z"/>
	<path d="M311.09,817c-5.55-7.8-7-9.16-7.64-10.84c-22.86-60.42-17.32-108.85,38.83-154.33
		c115.57-93.63,225.68-194.03,337.57-292.17c11.87-10.41,21.16-10.42,30.94,0.24c13.8,15.04,26.9,30.72,44.17,50.59
		C606.15,546.78,459.36,681.21,311.09,817z"/>
	<path d="M824.45,724.16c-88.39-25.37-176.78-50.73-273.65-78.53c29.04-27.74,50.5-49.15,73.21-69.13
		c4.16-3.66,13.95-3.5,20.21-1.76c53.11,14.79,106.1,30.05,158.83,46.13c5.63,1.72,12.31,8.89,13.55,14.61
		c5.72,26.34,9.68,53.06,14.27,79.64C828.73,718.13,826.59,721.14,824.45,724.16z"/>
	<path d="M888.89,490.52c-24,33.45-43.36,61.86-64.57,88.8c-4.26,5.41-16.5,8.89-23.49,7.11c-46.78-11.91-93.14-25.48-145.61-40.19
		c32.62-31.13,60.31-58.08,88.8-84.15c3.92-3.58,12.33-5.03,17.77-3.73C802.46,468.08,842.9,478.75,888.89,490.52z"/>
	<path d="M266.23,804.22c-48.08-38.55-94.91-70.16-133.22-109.97c-13.81-14.35-7.17-48.39-9.86-73.45c3.02-1.51,6.04-3.02,9.06-4.52
		c39.86,29.85,79.88,59.5,119.3,89.92c3.33,2.57,2.98,10.31,3.73,15.73C258.69,746.79,261.91,771.68,266.23,804.22z"/>
	<path d="M909.19,518.04c42.54,63.6,42.63,63.66-0.05,120.6c-14.23,18.98-29.05,37.53-46.26,59.71
		c-6.09-30.22-11.64-55.4-15.93-80.79c-0.96-5.66,0.94-13.16,4.23-17.96C869.54,572.83,888.72,546.62,909.19,518.04z"/>
	<path d="M941.52,321.67c-3.43,6.88-4.21,11.25-6.8,13.19c-22.35,16.74-44.79,33.38-67.9,49.03c-2.83,1.92-11.78-0.66-14.18-3.9
		c-2.47-3.34-2.56-12.84,0.02-14.84c22.74-17.59,45.98-34.59,70.02-50.33C925.83,312.77,934.31,318.88,941.52,321.67z"/>
	<path d="M245.32,201.96c7.58,3.15,11.17,3.47,12.43,5.35c16.01,23.74,32.02,47.5,46.99,71.89c1.67,2.71-2.09,12.58-5,13.43
		c-4.96,1.46-14.01,0.39-16.53-3.1c-15.17-20.99-29.76-42.52-42.59-64.99C237.92,219.79,243.36,210.39,245.32,201.96z"/>
	<path d="M845.05,222.8c-15.78,26.16-30.8,51.71-46.86,76.58c-1.44,2.23-11.31,1.99-14.28-0.56c-3.23-2.78-5.61-10.99-3.8-14.46
		c12.42-23.88,25.67-47.37,39.69-70.36c2.02-3.31,10.22-5.34,14.44-4.11C838.21,211.04,840.71,217.28,845.05,222.8z"/>
	<path d="M131.09,456.72c-28.54-6.98-53.1-12.23-77.06-19.5c-4.73-1.44-7.11-10.63-10.57-16.24c5.31-2.78,11.19-8.68,15.82-7.83
		c24.62,4.56,49.13,10.1,73.17,17.05c5.04,1.46,11.05,10.36,10.87,15.64C143.17,450.09,134.35,454.04,131.09,456.72z"/>
	<path d="M119.9,280.99c6.1,3.44,11.21,5.7,15.64,8.91c18.19,13.17,36.7,26,53.82,40.46c3.93,3.32,2.83,12.61,4.04,19.15
		c-5.93,0.81-13.76,4.46-17.47,1.96c-21.7-14.62-42.72-30.31-63.19-46.61c-3.09-2.46-3.57-10.32-2.54-15.09
		C110.93,286.42,116.28,284.07,119.9,280.99z"/>
	<path d="M711.14,157.85c-5.32,28.42-9.05,52.5-14.87,76.08c-1.28,5.19-9.98,8.55-15.26,12.75c-3.2-5.86-9.71-12.14-9.03-17.51
		c3.05-24.1,7.39-48.12,13.09-71.72c1.23-5.08,10.04-11.48,15.32-11.44C704.59,146.03,708.72,154.96,711.14,157.85z"/>
</g>
</svg>
