<?xml version="1.0" encoding="utf-8"?>
<!-- Generator: Adobe Illustrator 24.0.1, SVG Export Plug-In . SVG Version: 6.00 Build 0)  -->
<svg version="1.1" id="Layer_1" xmlns="http://www.w3.org/2000/svg" xmlns:xlink="http://www.w3.org/1999/xlink" x="0px" y="0px"
	 viewBox="0 0 1000 1000" style="enable-background:new 0 0 1000 1000;" xml:space="preserve">
<g>
	<path d="M489.97,693.35c-35.54,0-71.13,1.06-106.62-0.27c-43.85-1.64-87.63-5.27-131.44-8.07c-2.25-0.14-4.5-0.55-6.72-0.95
		c-8.92-1.6-12.53-5.53-11.18-14.53c2.02-13.4,3.71-27.09,7.89-39.88c18.88-57.72,54.79-100.92,110.96-125.96
		c4.69-2.09,9.9-3.43,15-4.1c15.64-2.04,26.77,1.01,35.33,18.05c23.8,47.35,48.63,94.17,73.06,141.19c0.73,1.4,1.49,2.81,2.4,4.1
		c8.81,12.65,15.95,12.6,23.16-0.75c12.26-22.71,24.13-45.64,36.07-68.53c13.09-25.1,26.11-50.23,39.09-75.39
		c9.8-18.99,23.78-24.69,43.98-17.43c18.54,6.66,35.15,16.83,50.2,29.38c43.57,36.33,68.95,82.6,75.09,139.18
		c1.01,9.3-1.55,13.44-10.82,14.61c-13.91,1.76-27.91,3.06-41.91,3.72c-67.81,3.17-135.63,6.07-203.45,9.06
		C490.03,695.64,490,694.49,489.97,693.35z"/>
	<path d="M361.13,860.61c-43.45-1.15-90.21,4.56-137,9.96c-9.8,1.13-19.95,1-29.78-0.06c-26.92-2.91-44.64-18.09-52.49-43.68
		c-10.01-32.63-9.35-65.31,3.7-97.12c9.43-22.99,27.54-34.58,51.99-34.69c18.74-0.08,37.51,1.77,56.25,3.02
		c29.58,1.97,59.15,4.13,88.72,6.25c25.74,1.85,51.47,3.75,77.2,5.64c7.7,0.56,12.31,5.16,15.22,11.84
		c7.51,17.2,11.74,35.22,12.93,53.9c0.46,7.22,0.22,14.5,0.05,21.74c-0.29,11.93-4.69,16.79-16.71,18.03
		c-19.82,2.04-39.67,3.8-59.5,5.69c-46.43,4.42-92.85,8.91-139.29,13.19c-8.53,0.79-17.19,1.5-25.7,0.9
		c-27.45-1.94-35.75-21.11-35.43-42.68c0.14-9.86,2.47-19.76,4.59-29.46c0.55-2.5,4.04-4.36,6.18-6.51
		c2.08,2.28,4.97,4.23,6.06,6.92c2.61,6.43,3.51,13.66,6.68,19.74c5.6,10.74,18.67,12.44,26.79,3.46
		c3.93-4.35,7.25-10.15,8.56-15.82c3.99-17.36-1.32-32.37-14.92-43.81c-11.47-9.65-27.53-8.63-38.43,1.65
		c-20.39,19.24-24.3,43.9-21.28,69.96c1.11,9.58,4.87,19.47,9.74,27.88c11.97,20.67,31.56,25.07,53.96,22.97
		c69.87-6.57,139.78-12.77,209.67-19.1c8.79-0.8,11.63,2.89,8.39,11.19c-3.18,8.15-9.37,13.47-17.67,15.62
		c-6.74,1.74-13.76,2.91-20.7,3.23C387.6,860.99,376.25,860.61,361.13,860.61z"/>
	<path d="M213.96,135.11c1.9-0.55,3.78-1.25,5.72-1.63c83.17-16.05,166.35-32.02,249.5-48.13c12.87-2.49,25.7-2.47,38.45-0.04
		c82.75,15.8,165.48,31.73,248.19,47.74c3.91,0.76,7.6,2.65,11.39,4.01c-0.11,0.78-0.23,1.56-0.34,2.33
		c-2.21,0.82-4.38,1.85-6.65,2.44c-79.14,20.5-158.33,40.82-237.42,61.52c-23.69,6.2-46.75,5.27-70.35-1.04
		c-66.73-17.83-133.67-34.83-200.53-52.2c-9.86-2.56-19.72-5.15-29.48-8.09c-3.23-0.97-6.13-3.08-9.18-4.67
		C213.5,136.61,213.73,135.86,213.96,135.11z"/>
	<path d="M845.15,782.31c-2.43,16.09-4.04,30.25-6.82,44.19c-2.49,12.49-8.23,15.65-21.01,14.4c-49.55-4.84-99.12-9.5-148.68-14.23
		c-29.29-2.8-58.58-5.56-87.85-8.47c-9.9-0.98-12.47-4.33-11.51-14.38c2.76-28.77-1.01-56.91-8.35-84.67
		c-2.24-8.45-2.26-8.98,6.4-9.65c24.58-1.9,49.18-3.52,73.78-5.23c30.24-2.1,60.48-4.17,90.71-6.26
		c15.35-1.06,30.68-2.55,46.04-3.11c31-1.14,49.91,11.88,58.55,41.82C840.83,752.01,842.51,768.09,845.15,782.31z"/>
	<path d="M622.32,277.32c1.18,3.81,2.35,6.72,2.99,9.74c13.19,62.27-17.2,129.96-77.1,156.24c-66.49,29.17-143.14,8.63-180.51-61.3
		c-15.69-29.35-19.44-60.46-14.1-92.97c1.78-10.86,5.09-12.09,14.43-5.71c31.99,21.87,67.36,33.8,106.04,36.26
		c52.78,3.36,101.02-9.19,144.09-40.37C619.02,278.59,620.13,278.3,622.32,277.32z"/>
	<path d="M492.79,310.1c-44.86-0.87-83.74-11.07-119.25-33.38c-14.46-9.08-22.84-21.21-23.79-38.66
		c-0.82-15.13-2.78-30.19-4.27-45.28c-0.81-8.19,0.48-9.35,8.59-7.09c36.43,10.12,72.95,19.95,109.24,30.57
		c18.87,5.52,36.74,5.32,55.84-0.48c34.85-10.58,70.37-18.95,105.66-28.08c7.72-2,9.37-0.18,8.84,7.66
		c-0.85,12.64-1.72,25.28-2.07,37.94c-0.49,18.02-7.12,31.97-23.01,41.9c-30.57,19.09-63.47,30.6-99.38,33.56
		C502.66,309.29,496.12,309.83,492.79,310.1z"/>
	<path d="M495.15,855.15c-13.58,0-27.17,0.08-40.75-0.03c-8.17-0.07-9.04-1.32-6.51-8.69c14.83-43.24,14.25-86.19-2.26-128.88
		c-2.5-6.48-1.81-7.75,5.02-7.78c28.03-0.1,56.06,0.02,84.09-0.07c7.27-0.02,12.08,3.11,14.48,9.94
		c8.52,24.19,12.78,49.14,10.47,74.69c-1.42,15.69-4.27,31.35-7.8,46.72c-2.84,12.4-6.14,14.05-18.71,14.11
		c-12.68,0.06-25.35,0.01-38.03,0.01C495.15,855.17,495.15,855.16,495.15,855.15z"/>
	<path d="M490.48,466.41c3.62,0,7.25-0.13,10.87,0.03c9.86,0.44,17.99,6.63,19.64,14.8c2.13,10.56-1.4,17.74-11.79,22.41
		c-4.86,2.19-6.52,5.53-6.87,10.54c-1.19,16.76,3.74,31.88,12.44,45.79c10.41,16.65,10.14,33.15,1.39,50.28
		c-5.87,11.49-11.06,23.32-16.59,34.98c-0.77,1.63-1.56,3.29-2.61,4.75c-5.69,7.89-10.37,7.35-14.51-1.41
		c-6.87-14.54-13.68-29.11-20.9-43.47c-6.59-13.11-7.09-25.71,0.2-38.87c7.34-13.25,14.45-26.71,16.69-42.09
		c1.61-11.07-0.18-15.36-9.81-21.23c-8.03-4.89-12.14-13.3-10.33-21.13c2.03-8.79,9.33-14.69,19.29-15.29
		c4.29-0.26,8.6-0.04,12.91-0.04C490.48,466.45,490.48,466.43,490.48,466.41z"/>
	<path d="M821.77,859.85c-5.19,2.33-10.2,5.25-15.59,6.89c-18.11,5.51-36.67,4.3-55.2,2.9c-39.68-3.01-79.34-6.3-119.05-8.93
		c-17.59-1.16-35.26-0.92-52.89-1.49c-3.81-0.12-7.77-0.41-11.36-1.57c-9.06-2.93-11.2-13.68-3.42-19.11
		c4.16-2.91,10-4.89,15.03-4.8c15.36,0.29,30.71,1.53,46.02,2.87c43.26,3.8,86.51,7.76,129.76,11.8
		c18.92,1.77,37.82,3.82,56.71,5.92c3.21,0.36,6.33,1.58,9.49,2.4C821.44,857.77,821.61,858.81,821.77,859.85z"/>
	<path d="M709.02,206.8c0,10.19-0.7,20.44,0.26,30.53c0.59,6.22,2.99,12.57,5.9,18.17c2.4,4.62,3.85,8.79,1.47,13.4
		c-5.66,10.96-5.42,21.98-2.04,33.58c3.6,12.38,6.38,25,9.35,37.55c1.73,7.32,0.35,9.15-7.05,9.31c-8.37,0.18-16.75,0.2-25.12-0.01
		c-8.33-0.21-10.5-2.72-8.87-11.17c1.8-9.32,4.18-18.53,6.59-27.72c3.59-13.69,6.2-27.15,1.7-41.41
		c-1.32-4.17,0.86-10.27,3.17-14.56c3.94-7.33,4.9-14.55,4.56-22.78c-0.77-18.52-0.79-37.1-0.23-55.63
		c0.13-4.31,4.74-12.37,5.67-12.14c6.3,1.55,4.35,7.75,4.52,12.31c0.37,10.17,0.12,20.37,0.12,30.55
		C709,206.8,709.01,206.8,709.02,206.8z"/>
	<path d="M445,866.32c4.85-0.53,9.69-1.49,14.54-1.52c22.65-0.17,45.31,0.08,67.96-0.14c10.94-0.11,18.91,3.8,22.83,14.43
		c2.34,6.34,4.82,12.64,6.8,19.1c0.59,1.91-0.32,4.28-0.54,6.45c-2.11-0.33-4.46-0.17-6.3-1.06c-11.22-5.42-22.29-11.14-33.47-16.64
		c-9.65-4.74-13.5-3.54-18.85,5.8c-3.15,5.5-5.89,11.25-9.25,16.62c-1.79,2.85-4.5,5.12-6.8,7.65c-1.65-2.83-3.99-5.48-4.84-8.54
		c-3.68-13.15-11.11-23.71-21.44-32.34c-3.41-2.85-7.28-5.15-10.94-7.7C444.81,867.72,444.9,867.02,445,866.32z"/>
</g>
</svg>
