<?xml version="1.0" encoding="utf-8"?>
<!-- Generator: Adobe Illustrator 24.0.1, SVG Export Plug-In . SVG Version: 6.00 Build 0)  -->
<svg version="1.1" id="Layer_1" xmlns="http://www.w3.org/2000/svg" xmlns:xlink="http://www.w3.org/1999/xlink" x="0px" y="0px"
	 viewBox="0 0 1000 1000" style="enable-background:new 0 0 1000 1000;" xml:space="preserve">
<g>
	<path d="M416.37,902.11c84.58,0,169.16,0,255.68,0c-10.83-4.61-20.21-8.1-29.15-12.5c-61.18-30.1-91.04-79.56-89.19-147.49
		c0.74-27.16,13.03-50.92,26.91-73.65c22.6-37.03,51.57-68.83,82.41-99.01c2.06-2.02,5.98-3.01,9.04-3.02
		c47.99-0.18,95.99-0.18,143.98-0.01c3.06,0.01,6.99,0.9,9.04,2.9c34.22,33.39,65.25,69.24,89.6,110.8
		c46.33,79.07,9.48,179.65-80,214.49c-5.42,2.11-10.91,4.05-18.56,6.87c4.14,0.39,6.24,0.76,8.34,0.76
		c17.84,0.05,35.69,0.07,53.53,0.01c6.36-0.02,11.29,2.16,11.3,9.15c0.01,6.96-4.91,9.29-11.26,9.25c-2.15-0.02-4.31,0-6.46,0
		c-250.12,0-500.24,0.01-750.36-0.03c-7.18,0-15.84,1.86-17.18-8.9c-0.85-6.87,4.34-9.46,17.49-9.46c45.22,0,90.45,0,135.67,0
		c2.93,0,5.85,0,8.78,0c-28.73-10.11-55.61-23.09-80.37-40.49C53.33,768.87,33.52,575.68,145.95,459.54
		c72.6-75,162-101.7,263.1-75.21c99.14,25.98,162.07,91.9,191.56,190.1c5.43,18.07,4.49,31.95-9.11,47.35
		c-24.09,27.29-42.76,58.65-52.27,94.39c-8.17,30.69-4.52,61.05,5.23,90.76c2.05,6.24,1,10.05-3.18,14.65
		c-33.19,36.56-72.99,62.73-120.23,77.43c-1.7,0.53-3.33,1.26-4.99,1.89C416.17,901.31,416.27,901.71,416.37,902.11z M341.53,451.36
		C235.56,451,149.42,536.53,149.12,642.42c-0.31,105.9,85.06,192.17,190.89,192.91c105.15,0.74,192.75-85.88,193.11-190.95
		C533.49,537.97,447.87,451.71,341.53,451.36z M743.6,656.26c-40.44,0.26-73.27,33.21-73.23,73.5
		c0.04,40.65,33.52,73.75,74.26,73.42c41.02-0.33,73.37-33.33,72.99-74.46C817.26,688.28,784.28,655.99,743.6,656.26z"/>
	<path d="M556.86,165.75c-42.48,47.58-83.31,93.3-125.79,140.88c7.67,0,13.05-0.13,18.41,0.02c15.33,0.43,21.63,11.01,14.33,24.33
		c-7.8,14.22-15.9,28.29-24.17,42.96c-62.13-21.7-124.3-23.15-187.59-3.4c-8.11-14.58-16.63-28.75-23.97-43.5
		c-4.71-9.46,2.01-19.25,13.13-20.22c6.31-0.55,12.71-0.1,21.56-0.1c-42.43-47.56-83.24-93.3-124.83-139.92
		c2.79-0.45,4.68-1.02,6.56-1.02c30.75-0.06,61.5,0.15,92.25-0.2c6.13-0.07,8.4,2.35,10.34,7.63c14.61,39.75,29.5,79.4,44.3,119.08
		c5.78,15.5,5.78,15.5,24.59,13.5c-17.26-46.39-34.4-92.43-51.86-139.36c55.38,0,109.87,0,165.57,0
		c-17.24,46.29-34.4,92.38-51.58,138.51c15.59,4.39,18.39,3.1,23.49-10.57c15.03-40.25,30.16-80.47,44.96-120.8
		c2.09-5.69,4.57-8.08,11.08-8C489.86,165.96,522.09,165.75,556.86,165.75z"/>
	<path d="M807.99,382.58c0.79,34,25.93,44.77,47.08,58.27c-8.85,13.94-17.37,27.69-26.38,41.12c-1.32,1.96-4.99,3.29-7.59,3.3
		c-52.29,0.19-104.58,0.18-156.88,0.03c-2.41-0.01-5.85-0.98-7.05-2.72c-8.84-12.84-17.23-25.99-26.03-39.46
		c21.31-9.9,39.45-23.26,41.77-50.85c11.91,19.34,23.82,38.67,35.73,58.01c0.55-0.18,1.11-0.35,1.66-0.53
		c-1.68-22.78-3.35-45.55-5.2-70.67c26.18,24.31,51.94,25.6,79.52-0.3c-1.34,18.55-2.51,34.67-3.68,50.79
		c0.51,0.21,1.02,0.43,1.52,0.64C790.5,415.23,798.52,400.25,807.99,382.58z"/>
	<path d="M429.37,147.12c-55.52,0-109.26,0-164.2,0c0.96-2.98,1.56-5.49,2.55-7.85c9.05-21.49,18.32-42.89,27.15-64.47
		c2.03-4.96,4.55-6.86,10.05-6.81c27.97,0.29,55.94,0.04,83.91,0.28c2.83,0.02,7.33,1.32,8.2,3.29
		C407.94,96.19,418.32,121.05,429.37,147.12z"/>
	<path d="M745.51,547.93c-27.05,0-54.1,0.05-81.15-0.02c-15.19-0.04-25.31-8.96-25.31-22.05c0-13.05,10.13-22.09,25.33-22.12
		c54.1-0.09,108.2-0.08,162.3-0.01c15.66,0.02,26.06,9.33,25.75,22.61c-0.31,13.08-10.32,21.54-25.76,21.57
		C799.61,547.97,772.56,547.93,745.51,547.93z"/>
	<path d="M277.79,68.14c-8.44,20.08-16.21,38.64-24.04,57.19c-9.3,22.05-9.31,22.04-32.9,22.04c-23.63,0-47.26,0-70.89,0
		c-2.92,0-5.85,0-10.79,0c3.92-4.1,6.3-6.72,8.81-9.21c21.79-21.6,43.46-43.33,65.57-64.6c3.09-2.97,8.31-5.03,12.62-5.18
		C242.72,67.78,259.29,68.14,277.79,68.14z"/>
	<path d="M415.93,68.14c19.69,0,37.47-0.09,55.25,0.11c2.19,0.02,4.92,1.03,6.45,2.54c24.94,24.52,49.74,49.2,74.53,73.87
		c0.34,0.34,0.3,1.05,0.72,2.7c-12.71,0-25.14,0-37.57,0c-19.64,0-39.28,0.14-58.92-0.16c-2.81-0.04-7.26-1.43-8.14-3.44
		C437.39,119.19,427.04,94.38,415.93,68.14z"/>
	<path d="M928.88,902.38c3.99,0.01,8.44-1.1,11.83,0.32c3.31,1.39,7.88,5.56,7.67,8.16c-0.28,3.41-4.37,8.77-7.43,9.24
		c-8.39,1.27-17.2,1.16-25.62-0.02c-2.91-0.41-7.46-5.84-7.13-8.46c0.42-3.35,4.49-7.44,7.96-8.9
		C919.79,901.18,924.59,902.37,928.88,902.38z"/>
	<path d="M66.82,920.58c-2.45,0-5.58,0.96-7.2-0.2c-3.31-2.37-7.98-5.86-8-8.91c-0.02-3.01,4.49-7.41,7.95-8.75
		c4.01-1.54,9.05-0.41,13.64-0.42c6.14-0.01,10.25,2.82,10.27,9.13c0.03,6.34-4.16,9.11-10.23,9.22c-2.14,0.04-4.29,0.01-6.43,0.01
		C66.82,920.64,66.82,920.61,66.82,920.58z"/>
	<path d="M771.53,713.28c-1.41,1.24-4.4,5.98-7.52,6.06c-3.35,0.08-7.03-3.97-10.11-6.72c-1.12-1-0.35-4.23-1.47-5.1
		c-2.91-2.25-6.66-5.49-9.58-5.05c-2.98,0.45-7.12,4.57-7.52,7.53c-0.4,2.9,2.74,6.92,5.35,9.35c1.71,1.59,5.23,1.25,7.95,1.73
		c11.86,2.09,19.23,9.36,22.36,20.61c3.08,11.08-1.73,22.08-11,29.3c-3,2.34-4.52,6.49-7.23,9.33c-2.35,2.46-5.36,5.78-8.18,5.89
		c-2.81,0.1-6.14-2.93-8.52-5.31c-3.21-3.2-6.04-6.9-8.5-10.73c-3.88-6.04-8.18-12.05-10.67-18.68c-2-5.31,0.41-10.64,6.9-11.81
		c6.22-1.12,9.89,1.97,10.87,8.3c0.28,1.78,0.59,4.27,1.78,5.06c2.86,1.86,6.76,4.59,9.29,3.83c3.01-0.91,6.47-4.86,7.01-7.96
		c0.46-2.62-2.4-6.55-4.83-8.73c-1.76-1.58-5.22-1.32-7.94-1.79c-11.92-2.05-20.54-10.32-23.04-22.14
		c-2.22-10.5,2.58-21.19,11.77-28.13c2.79-2.11,4.06-6.13,6.61-8.7c2.58-2.59,5.92-6.22,8.85-6.15c2.93,0.07,6,3.92,8.57,6.55
		c2.33,2.38,3.56,6.02,6.15,7.93C766.96,693.72,771.74,701.51,771.53,713.28z"/>
</g>
</svg>
