<?xml version="1.0" encoding="utf-8"?>
<!-- Generator: Adobe Illustrator 24.0.1, SVG Export Plug-In . SVG Version: 6.00 Build 0)  -->
<svg version="1.1" id="Layer_1" xmlns="http://www.w3.org/2000/svg" xmlns:xlink="http://www.w3.org/1999/xlink" x="0px" y="0px"
	 viewBox="0 0 1000 1000" style="enable-background:new 0 0 1000 1000;" xml:space="preserve">
<g>
	<path d="M878.31,406.11c-4.39,6.75-10.44,9.28-18.6,9.01c-15.46-0.51-30.95-0.09-46.43-0.17c-10.81-0.06-16.01-5.02-16.01-15.69
		c-0.06-84.03-0.06-168.05,0-252.08c0.01-10.69,5.17-15.62,16.02-15.68c15.48-0.08,30.97,0.34,46.43-0.17
		c8.16-0.27,14.22,2.23,18.6,9.01C878.31,228.93,878.31,317.52,878.31,406.11z"/>
	<path d="M131.18,887.46c-6.77-4.39-9.03-10.47-9-18.61c0.24-82.11,0.14-164.22,0.15-246.34c0-14.35,4.13-18.53,18.31-18.54
		c15.49-0.01,30.98-0.06,46.46,0.02c11.22,0.05,16.27,4.98,16.28,16.19c0.05,83.59-0.03,167.17,0.12,250.76
		c0.01,7.42-3.18,12.46-8.83,16.53C173.51,887.46,152.35,887.46,131.18,887.46z"/>
	<path d="M527.22,729.07c2.04-36.99-34.79-72.08-74.23-71.04c-17.7,0.47-35.45-0.5-53.14,0.21c-25.63,1.03-47.48-7.88-67.84-22.58
		c-10.51-7.59-22.01-13.79-32.92-20.83c-2.11-1.36-4.18-3.4-5.3-5.62c-47.3-94.28-19.55-215.41,63.93-279.29
		c1.91-1.47,4.09-2.79,6.36-3.56c35.14-11.85,70.32-23.6,105.5-35.35c1.13-0.38,2.35-0.52,3.55-0.78
		c4.16,37.86,25.4,62.35,60.46,69.23c6.92,1.36,14.19,1.2,21.3,1.31c20.16,0.31,40.34,0.02,60.5,0.66
		c20.55,0.65,37.33,10.91,53.7,22.21c10.48,7.23,21.63,13.48,32.35,20.37c2.12,1.36,4.25,3.35,5.37,5.55
		c47.47,94.03,19.97,214.42-63.76,279.35c-1.91,1.48-4.07,2.84-6.33,3.61c-35.36,11.95-70.75,23.79-106.14,35.65
		C529.64,728.49,528.69,728.68,527.22,729.07z M486.9,589.22c-3.52-0.77-6.21-1.1-8.72-1.96c-16.5-5.65-30.8-13.24-32.53-33.55
		c-0.58-6.76-7.18-10.85-14-10.31c-6.86,0.55-12.22,5.99-12.27,13.32c-0.08,10.9,3.44,20.79,9.95,29.52
		c10.43,13.98,24.51,22.98,41.23,26.71c11.36,2.54,19.27,5.2,16.81,19.58c-1.11,6.5,5.79,11.55,12.6,11.7
		c7.14,0.16,12.82-4.66,13.6-11.81c0.32-2.92,0.41-5.93,0.11-8.84c-0.52-5.03,0.92-7.13,6.48-8.1
		c18.85-3.27,35.65-10.98,48.45-25.82c16.96-19.67,16.9-46.29-0.06-65.98C557.72,511.1,543.7,503.83,528,499.5
		c-14.23-3.92-14.27-3.81-14.27-18.6c0-16.88,0-33.76,0-51.2c3.53,0.78,6.23,1.1,8.74,1.96c16.5,5.66,30.8,13.25,32.52,33.57
		c0.57,6.75,7.21,10.86,14.02,10.29c7.13-0.59,12.4-6.32,12.27-14.09c-0.17-10.62-3.62-20.27-9.98-28.78
		c-10.44-13.97-24.51-23.01-41.24-26.69c-11.43-2.52-19.19-5.29-16.79-19.6c1.09-6.51-5.82-11.53-12.63-11.67
		c-7.16-0.14-12.81,4.67-13.57,11.82c-0.31,2.92-0.41,5.93-0.1,8.84c0.53,5.04-1.27,6.58-6.43,8.2
		c-12.28,3.86-25.23,7.63-35.77,14.64c-34.24,22.79-33.83,64.73-0.14,88.39c11.06,7.77,23.4,12.42,36.65,14.6
		c3.63,0.6,5.75,1.36,5.71,5.75C486.79,547.35,486.9,567.76,486.9,589.22z M703.17,509.51c-0.69-8.82-0.36-17.87-2.3-26.41
		c-3.96-17.42-8.9-34.63-13.94-51.78c-1.76-5.99-6.88-9.03-13.17-8.7c-5.93,0.3-10.75,3.56-11.87,9.35
		c-0.78,4.03,0.09,8.84,1.61,12.77c35.89,92.83-9.7,194.69-102.83,229.37c-11.79,4.39-16.02,10.76-12.84,19.34
		c3.03,8.18,10.88,10.23,22.63,5.9C649.96,670.09,702.76,594.3,703.17,509.51z M297.91,509.14c-0.2,25.13,4.36,49.38,13.39,72.81
		c4.82,12.53,11.09,16.79,19.61,13.42c8.64-3.41,10.39-10.66,5.58-23.07c-35.04-90.38,11.03-192.96,101.9-226.89
		c2.53-0.95,5.15-1.72,7.56-2.92c6.46-3.22,9.25-10.17,6.92-16.81c-2.16-6.16-8.46-9.68-15.43-8.34c-2.63,0.5-5.19,1.49-7.72,2.42
		C350.67,348.87,297.94,424.65,297.91,509.14z"/>
	<path d="M230.67,860.62c0-76.74,0-152.65,0-229.32c27.14-2.15,52.51,2.17,75.36,18.28c11.82,8.33,23.91,16.39,36.47,23.54
		c15.01,8.55,31.65,11.89,48.9,11.93c20.91,0.06,41.83-0.33,62.73,0.15c17.43,0.4,30.99,8.63,40.62,23.07
		c4.39,6.58,6.09,13.91,4.06,21.8c-1.48,5.75-4.19,9.03-11.19,8.92c-28.28-0.41-56.58,0.05-84.87-0.23
		c-28.75-0.29-54.77,7.54-78.06,24.47c-7.78,5.66-10.01,13.46-5.33,20.17c4.48,6.42,12.7,7.77,20.2,2.27
		c20.32-14.9,42.93-20.5,67.96-19.75c27.77,0.83,55.6,0.45,83.39,0.02c7.48-0.12,15.25-1.36,22.35-3.7
		c76.24-25.21,152.35-50.79,228.56-76.08c4.51-1.5,9.73-2.51,14.3-1.77c7.69,1.25,12.48,6.8,13.83,14.51
		c1.42,8.09-1.78,14.55-8.7,18.84c-16.7,10.37-33.51,20.58-50.29,30.81c-53.09,32.36-106.37,64.44-159.2,97.22
		c-16.71,10.37-34.09,15.08-53.69,14.99c-86.1-0.37-172.2-0.16-258.3-0.16C236.85,860.62,233.96,860.62,230.67,860.62z"/>
	<path d="M770.02,158.67c0,76.68,0,152.61,0,229.02c-27.58,2.03-52.97-2.44-75.81-18.63c-12.2-8.64-24.8-16.83-37.85-24.11
		c-14.64-8.17-30.89-11.07-47.63-11.08c-20.42,0-40.85,0.29-61.27-0.1c-19.91-0.37-34.8-9.77-43.84-27.44
		c-2.2-4.3-3.06-9.99-2.56-14.84c0.97-9.36,4.06-11.35,13.48-11.39c31.74-0.14,63.48,0.04,95.22-0.55
		c25.47-0.47,47.76-10.41,68.06-25.24c6.77-4.94,8.36-12.39,4.29-18.72c-4.18-6.51-12.29-8.32-19.34-3.47
		c-13.72,9.44-28.05,17.34-44.81,19.61c-5.58,0.75-11.27,1.01-16.91,1.03c-27.31,0.1-54.64,0.5-81.94-0.14
		c-14.29-0.33-27.58,2.3-41.02,6.86c-73.28,24.83-146.69,49.27-220.13,73.65c-4.26,1.42-9.3,2.16-13.63,1.36
		c-7.7-1.41-12.41-6.98-13.63-14.71c-1.28-8.06,1.93-14.47,8.91-18.75c19.69-12.09,39.42-24.12,59.16-36.14
		c52.28-31.84,104.61-63.61,156.83-95.55c11.88-7.27,24.64-10.99,38.47-11c90.06-0.04,180.13-0.03,270.19-0.01
		C765.94,158.34,767.62,158.53,770.02,158.67z"/>
	<path d="M486.65,430.12c0,21.56,0,42.68,0,64.54c-13.42-2.55-25.33-7.04-34.26-17.37c-8.07-9.34-7.95-20.71,0-30.21
		C459.55,438.53,471.74,432.39,486.65,430.12z"/>
	<path d="M514.09,589.11c0-21.75,0-43.03,0-64.79c13.01,2.44,24.56,6.79,33.4,16.48c9.08,9.94,9.08,21.89,0,31.84
		C538.64,582.32,527.08,586.66,514.09,589.11z"/>
</g>
</svg>
