<?xml version="1.0" encoding="utf-8"?>
<!-- Generator: Adobe Illustrator 24.0.1, SVG Export Plug-In . SVG Version: 6.00 Build 0)  -->
<svg version="1.1" id="Layer_1" xmlns="http://www.w3.org/2000/svg" xmlns:xlink="http://www.w3.org/1999/xlink" x="0px" y="0px"
	 viewBox="0 0 1000 1000" style="enable-background:new 0 0 1000 1000;" xml:space="preserve">
<path d="M82,439.63c4.01-16.46,14.91-27.44,27.83-37.7c119.09-94.49,237.92-189.31,356.82-284.03c20.72-16.5,44.19-16.72,64.87-0.25
	c121.69,96.88,243.35,193.81,364.97,290.78c18.37,14.65,24.54,36.16,16.72,56.68c-7.61,19.99-26.98,32.62-48.5,31.43
	c-11.52-0.64-21.31-5.4-30.27-12.57C725.28,396.65,616.04,309.4,506.82,222.13c-2.32-1.85-4.7-3.64-7.39-5.72
	c-1.99,1.46-3.97,2.79-5.82,4.28c-109.04,87.07-218.52,173.59-326.82,261.56c-32.99,26.8-75.97,11.96-84.06-24.86
	c-0.11-0.51-0.47-0.97-0.72-1.45C82,450.5,82,445.06,82,439.63z"/>
<path d="M481.31,939.9c-15.73-3.79-31.87-6.38-47.13-11.58c-84.11-28.64-139.63-117.37-129.38-205.7
	c10.57-91.11,78.81-162.82,166.69-175.16c100.49-14.12,196.64,51.75,219.76,150.55c26.58,113.55-52.99,226.88-168.74,240.41
	c-1.82,0.21-3.57,0.98-5.35,1.48C505.21,939.9,493.26,939.9,481.31,939.9z M474.79,624.57c-1.34,0.75-2.25,1.34-3.23,1.79
	c-33.96,15.52-50.77,46.68-44.14,81.84c6.33,33.58,34.92,57.23,71.28,58.97c13.32,0.64,23.16,9.14,24.82,21.45
	c1.54,11.48-5.79,22.56-17.34,26.23c-11.56,3.67-22.71-1.34-29.2-13.12c-7.82-14.2-21.42-19.32-33.96-12.78
	c-12.9,6.72-16.54,21.04-9.09,35.79c8.75,17.32,22.93,28.54,40.87,35.79c0,9.41-0.04,18.63,0.01,27.85
	c0.09,15.9,9.98,26.93,24.21,27.06c14.54,0.14,24.58-11.01,24.67-27.42c0.03-5.97,0.54-12.01-0.13-17.9
	c-0.79-6.94,1.74-10.23,8.08-13.36c50.38-24.86,55.21-93.76,9.04-125.53c-11.94-8.21-25.21-12.37-39.68-12.9
	c-14.23-0.52-24.08-8.56-26-21.08c-1.75-11.4,5.48-22.73,16.91-26.51c11.85-3.92,23.03,1.1,29.77,13.36
	c0.39,0.71,0.66,1.49,1.07,2.19c6.87,11.73,20.78,16.2,32.34,10.4c11.95-5.99,16.72-19.98,11.03-32.69
	c-5.32-11.91-12.4-23.95-24.2-28.68c-18.17-7.29-20.52-19.99-18.25-36.26c0.15-1.07,0.03-2.17,0.01-3.26
	c-0.29-15.05-10.68-25.92-24.66-25.79c-13.94,0.13-24.06,11.03-24.21,26.23C474.72,605.73,474.79,615.22,474.79,624.57z"/>
<path d="M274.87,840.43c-24.6,0-48.49,0.4-72.35-0.16c-13.21-0.31-22.57-11.25-22.68-25.11c-0.17-20.91-0.05-41.82-0.05-62.74
	c0-71.16,0.08-142.31-0.15-213.47c-0.02-6,2.39-8.46,7.04-11.85c18.19-13.26,35.8-27.33,53.41-41.38
	c84.49-67.39,168.94-134.83,253.28-202.4c4.4-3.52,7.07-3.81,11.67-0.13C604.65,363,704.4,442.59,804.13,522.23
	c1.06,0.85,1.98,2.13,3.19,2.5c12.06,3.67,11.55,12.95,11.51,23.08c-0.27,86.36-0.59,172.73,0.14,259.09
	c0.19,22.78-9.45,35.18-34.32,33.82c-19.48-1.06-39.05-0.21-57.9-0.21c42.19-129.81,11.73-236.03-105.07-309.85
	c-84.28-53.27-193.04-43.09-270.64,16.53C278.56,602.87,223.82,717.42,274.87,840.43z"/>
<path d="M818.64,283.36c-15.36-12.26-29.29-23.37-43.21-34.5c-16.53-13.21-33.17-26.28-49.42-39.83c-2.63-2.2-4.5-6.44-4.9-9.95
	c-0.76-6.7-0.39-13.55-0.17-20.32c0.45-13.81,10.59-24.01,24.46-24.23c16.28-0.27,32.57-0.27,48.84,0
	c13.53,0.23,24.14,10.17,24.28,23.51C818.87,212.49,818.64,246.94,818.64,283.36z"/>
</svg>
