<?xml version="1.0" encoding="utf-8"?>
<!-- Generator: Adobe Illustrator 24.0.1, SVG Export Plug-In . SVG Version: 6.00 Build 0)  -->
<svg version="1.1" id="Layer_1" xmlns="http://www.w3.org/2000/svg" xmlns:xlink="http://www.w3.org/1999/xlink" x="0px" y="0px"
	 viewBox="0 0 1000 1000" style="enable-background:new 0 0 1000 1000;" xml:space="preserve">
<g>
	<path d="M289.38,734.49c-11.66,10.39-18.29,21.29-26.04,22.15c-15.16,1.68-33.39,9.7-45.18-9.57
		c-39.42-64.39-60.11-134.2-63.16-214.55c35.81,0,70.44-1.31,104.83,1.03c7.43,0.51,13.96,14.15,24.06,25.19
		c11.7,0,29.63,0.53,47.52-0.1c52.23-1.82,100.76,8.53,149.49,29.7c35.38,15.38,76.88,16.81,115.75,23.92
		c7.73,1.42,15.93,0.03,23.87,0.59c18.68,1.33,29.95,11.83,30.72,30.21c0.77,18.38-9.63,30.54-28.06,32.74
		c-16.49,1.97-33.25,1.71-49.91,2.12c-31.15,0.76-62.31,1.13-93.46,2.04c-7.62,0.22-15.21,1.89-22.81,2.9
		c-0.79,2.48-1.58,4.97-2.37,7.45c6.18,3.19,12.4,9.2,18.54,9.12c49.99-0.62,99.98-2.07,149.93-4.1c7.54-0.31,15.1-4.41,22.31-7.53
		c54.18-23.45,108.09-47.56,162.55-70.35c12.7-5.32,28.59-7.59,35.25,9.71c6.32,16.4-5.29,25.32-18.12,32.38
		c-74.21,40.83-148.39,81.72-222.64,122.48c-33.56,18.42-69.36,20.61-105.45,10.9c-64.98-17.49-129.57-36.44-194.33-54.76
		C296.46,736.41,290.22,734.73,289.38,734.49z"/>
	<path d="M731.87,613.54c0-56.21-1.96-110.48,0.75-164.52c1.57-31.47-7.2-51.68-33.91-69.85c-46.05-31.33-89.42-66.68-133-101.49
		c-13.78-11.01-23.18-8.83-35.88,1.13c-50.15,39.36-101.32,77.42-151.23,117.08c-7.09,5.63-12.72,17.29-13.11,26.41
		c-1.5,35.25-0.61,70.6-0.61,107c-13.61,0-24.93,0-39.04,0c0-29.81,0-59.83,0-90.61c-7.07,0.44-12.08,2.3-15.42,0.68
		c-10.89-5.26-25.96-9.55-30.17-18.54c-3.34-7.13,4.25-23.3,11.7-30.73c14.75-14.71,33.94-24.94,48.94-39.45
		c7.81-7.55,13.56-19.9,14.99-30.78c2.43-18.53,0.89-37.6,0.66-56.44c-0.15-11.61,4.77-17.72,16.71-17.53
		c4.35,0.07,8.7-0.06,13.04-0.08c37.67-0.16,37.67-0.16,42.93,37.49c28.57-21.86,55.83-42.76,83.14-63.6
		c32.04-24.45,40.64-24.42,72.28-0.06c69.47,53.46,138.96,106.91,208.44,160.36c13.61,10.47,31.67,19.27,24.6,40.99
		c-6.97,21.39-25.83,19.74-46.52,17.23c0,37.98,0,74.65,0,111.33c0,6.52,0,13.05,0,19.57C771.16,603.94,771.16,603.94,731.87,613.54
		z"/>
	<path d="M563.58,431.12c-0.53-6.8-1.3-12.39-1.3-17.97c0-6.34,0.68-12.69,1.05-18.65c38.59-6.76,43.82-1.53,36.67,36.62
		C588.4,431.12,576.57,431.12,563.58,431.12z"/>
	<path d="M533.85,394.15c0,12.54,0,23.92,0,36.76c-12.59,0-24.45,0-36.22,0C489.92,393.1,494.32,388.42,533.85,394.15z"/>
	<path d="M563.79,456.65c13.15,0,24.55,0,35.8,0c8.55,36.84,3.96,41.77-35.8,37.49C563.79,482.53,563.79,470.72,563.79,456.65z"/>
	<path d="M533.03,494.16c-39.18,4.3-40.33,3.16-36.9-36.69c11.65,0,23.47,0,36.9,0C533.03,469.06,533.03,480.85,533.03,494.16z"/>
</g>
</svg>
