<?xml version="1.0" encoding="utf-8"?>
<!-- Generator: Adobe Illustrator 24.0.1, SVG Export Plug-In . SVG Version: 6.00 Build 0)  -->
<svg version="1.1" id="Layer_1" xmlns="http://www.w3.org/2000/svg" xmlns:xlink="http://www.w3.org/1999/xlink" x="0px" y="0px"
	 viewBox="0 0 1000 1000" style="enable-background:new 0 0 1000 1000;" xml:space="preserve">
<g>
	<path d="M920,923.21c-61.93,0-123.86,0-186.28,0c0-173.36,0-345.58,0-518.55c1.92-0.24,3.98-0.71,6.05-0.71
		c58.72-0.04,117.44-0.03,176.16-0.01c1.36,0,2.72,0.26,4.08,0.41C920,577.3,920,750.26,920,923.21z"/>
	<path d="M474.31,577.43c61.87,0,123.47,0,185.58,0c0,115.04,0,229.63,0,344.91c-61.7,0-123.28,0-185.58,0
		C474.31,807.89,474.31,693.1,474.31,577.43z"/>
	<path d="M826.94,336.2c-18.9-18.99-36.86-37.05-55.6-55.89c-83.28,79.73-165.8,158.74-248.73,238.14
		c-39.82-41.37-79.18-82.27-119.35-124.01c-95.7,97.25-191.22,194.33-286.86,291.52c-13.01-13.55-25.51-26.56-38.37-39.95
		c107.69-109.46,216.42-219.98,325.6-330.95c40.23,41.76,80.15,83.2,120.59,125.19C593.37,374.02,662.11,308.19,731,242.21
		c-19.47-19.42-38.63-38.53-59.5-59.35c53.48,0,104.21,0,155.44,0C826.94,233.69,826.94,284.3,826.94,336.2z"/>
	<path d="M214.44,660.11c62.49,0,123.91,0,185.95,0c0,87.42,0,174.54,0,262.28c-61.79,0-123.61,0-185.95,0
		C214.44,834.99,214.44,747.86,214.44,660.11z"/>
</g>
</svg>
