<?xml version="1.0" encoding="utf-8"?>
<!-- Generator: Adobe Illustrator 24.0.1, SVG Export Plug-In . SVG Version: 6.00 Build 0)  -->
<svg version="1.1" id="Layer_1" xmlns="http://www.w3.org/2000/svg" xmlns:xlink="http://www.w3.org/1999/xlink" x="0px" y="0px"
	 viewBox="0 0 1000 1000" style="enable-background:new 0 0 1000 1000;" xml:space="preserve">
<path d="M132.97,615.94c0-67.28,0.64-134.57-0.31-201.84c-0.41-28.69,19.86-49.51,48.22-48.37c20.79,0.84,41.64,0.06,62.46,0.19
	c27.9,0.17,45.74,17.73,45.75,45.48c0.09,136.7,0.08,273.4,0.01,410.1c-0.02,27.93-17.61,45.47-45.48,45.65
	c-21.89,0.13-43.78,0.17-65.67-0.01c-27.34-0.22-44.9-17.84-44.95-45.35C132.89,753.17,132.97,684.55,132.97,615.94z"/>
<path d="M325.64,668.61c0-50.17-0.02-100.35,0.01-150.52c0.02-29.11,17.8-47,46.77-47.07c21.35-0.05,42.69-0.09,64.04,0.01
	c27.07,0.13,45.62,17.97,45.68,44.99c0.21,102.22,0.22,204.43-0.01,306.65c-0.06,26.65-18.39,44.25-45.2,44.46
	c-22.15,0.17-44.3,0.19-66.44-0.01c-27.05-0.24-44.78-18.33-44.82-45.59C325.59,770.56,325.64,719.59,325.64,668.61z"/>
<path d="M711.41,668.15c0-49.68-0.03-99.35,0.01-149.03c0.02-30.87,17.25-48.08,48.06-48.11c20.83-0.02,41.66-0.08,62.48,0.02
	c27.25,0.12,45.52,17.86,45.55,44.94c0.14,102.29,0.15,204.58-0.01,306.87c-0.04,26.46-17.88,44.02-44.4,44.28
	c-22.16,0.22-44.33,0.17-66.49,0.02c-27.4-0.19-45.09-17.8-45.16-45.15C711.32,770.71,711.42,719.43,711.41,668.15z"/>
<path d="M783.8,289.96c-9.8,8.65-21.47,17.67-31.64,28.15c-43.14,44.47-85.81,89.38-128.68,134.11c-16.03,16.72-31.48,16.02-45.64-2
	c-27.05-34.43-54.15-68.82-81.01-103.39c-3.34-4.3-6.88-5.7-12.14-5.65c-27.24,0.23-54.49,0.59-81.7-0.22
	c-7.22-0.21-15.54-2.75-21.29-7.01c-69.04-51.19-137.71-102.89-206.43-154.51c-12.69-9.53-15.34-24.73-6.65-36.6
	c8.77-11.97,24.5-13.92,37.55-4.16c65.41,48.92,130.69,98.01,196.19,146.81c3.51,2.61,8.61,4.26,12.99,4.32
	c28.57,0.38,57.14,0.37,85.71,0.11c11.05-0.1,19.35,3.99,26.12,12.72c23.07,29.75,46.43,59.27,69.68,88.87
	c1.94,2.47,3.95,4.89,6.31,7.8c49.19-51.35,97.84-102.15,146.5-152.95c-0.17-0.77-0.34-1.54-0.51-2.31
	c-8.14,0-16.29,0.33-24.41-0.07c-16.48-0.8-26.91-11.78-26.17-27.06c0.7-14.49,12.3-24.43,28.4-24.07
	c27.49,0.62,54.99,1.29,82.48,2.1c17.85,0.52,27.62,10.59,27.34,28.29c-0.45,28.04-1.02,56.08-1.79,84.11
	c-0.42,15.52-11.83,26.38-26.66,25.94c-14.21-0.42-24.5-11.78-24.55-27.12C783.78,299.77,783.8,293.39,783.8,289.96z"/>
<path d="M674.92,722.57c0,32.83,0.05,65.66-0.01,98.49c-0.05,28.15-17.78,45.93-45.98,46.08c-21.62,0.11-43.23,0.13-64.85-0.01
	c-27.63-0.18-45.63-18.01-45.69-45.66c-0.15-66.46-0.15-132.92,0-199.38c0.06-27.7,18.09-45.53,45.67-45.65
	c21.88-0.09,43.77-0.1,65.65,0c27.11,0.13,45.12,18.13,45.19,45.22C674.99,655.31,674.92,688.94,674.92,722.57z"/>
</svg>
